<svg width="430" height="70" viewBox="0 0 430 70" fill="none" xmlns="http://www.w3.org/2000/svg">
<path d="M29.5087 56V7.016L21.1627 37.67H14.6887L6.34266 7.016V56H0.102656V1.4H11.1007L18.1987 29.324L25.2187 1.4H35.9827V56H29.5087ZM77.3135 35.72C77.3135 39.828 77.0015 43.234 76.3775 45.938C75.7535 48.59 74.8175 50.722 73.5695 52.334C72.3215 53.894 70.7615 54.986 68.8895 55.61C67.0695 56.234 64.9375 56.546 62.4935 56.546C60.1015 56.546 57.9695 56.234 56.0975 55.61C54.2775 54.986 52.7435 53.894 51.4955 52.334C50.2475 50.722 49.2855 48.59 48.6095 45.938C47.9855 43.234 47.6735 39.828 47.6735 35.72C47.6735 29.064 48.8695 24.202 51.2615 21.134C53.6535 18.014 57.3975 16.454 62.4935 16.454C67.5895 16.454 71.3335 18.014 73.7255 21.134C76.1175 24.202 77.3135 29.064 77.3135 35.72ZM70.5275 36.89C70.5275 34.134 70.3975 31.794 70.1375 29.87C69.8775 27.946 69.4355 26.412 68.8115 25.268C68.2395 24.072 67.4335 23.214 66.3935 22.694C65.3535 22.174 64.0535 21.914 62.4935 21.914C60.9335 21.914 59.6335 22.174 58.5935 22.694C57.5535 23.214 56.7215 24.072 56.0975 25.268C55.5255 26.412 55.1095 27.946 54.8495 29.87C54.5895 31.794 54.4595 34.134 54.4595 36.89C54.4595 41.986 55.0575 45.626 56.2535 47.81C57.4495 49.994 59.5295 51.086 62.4935 51.086C65.4575 51.086 67.5375 49.994 68.7335 47.81C69.9295 45.626 70.5275 41.986 70.5275 36.89ZM88.6052 56V17H94.0652L94.5332 20.978C95.4172 19.626 96.5092 18.534 97.8092 17.702C99.1092 16.87 100.721 16.454 102.645 16.454C103.581 16.454 104.387 16.506 105.063 16.61C105.739 16.662 106.311 16.74 106.779 16.844V23.786C106.103 23.63 105.323 23.474 104.439 23.318C103.607 23.162 102.827 23.084 102.099 23.084C100.799 23.084 99.7072 23.344 98.8232 23.864C97.9912 24.384 97.2892 25.086 96.7172 25.97C96.1972 26.802 95.8072 27.764 95.5472 28.856C95.3392 29.896 95.2352 30.936 95.2352 31.976V56H88.6052ZM119.278 38.84C119.33 41.388 119.512 43.468 119.824 45.08C120.188 46.64 120.656 47.862 121.228 48.746C121.8 49.63 122.476 50.228 123.256 50.54C124.036 50.8 124.92 50.93 125.908 50.93C128.092 50.93 130.068 50.8 131.836 50.54C133.656 50.228 135.164 49.942 136.36 49.682V55.298C135.112 55.662 133.526 55.948 131.602 56.156C129.73 56.416 128.092 56.546 126.688 56.546C124.452 56.546 122.45 56.312 120.682 55.844C118.966 55.376 117.51 54.44 116.314 53.036C115.118 51.632 114.208 49.63 113.584 47.03C112.96 44.378 112.648 40.868 112.648 36.5C112.648 32.912 112.934 29.844 113.506 27.296C114.13 24.748 115.04 22.668 116.236 21.056C117.432 19.444 118.914 18.274 120.682 17.546C122.45 16.818 124.504 16.454 126.844 16.454C131.316 16.454 134.514 17.936 136.438 20.9C138.414 23.812 139.402 27.842 139.402 32.99V38.84H119.278ZM126.688 21.992C125.44 21.992 124.374 22.174 123.49 22.538C122.606 22.902 121.878 23.526 121.306 24.41C120.734 25.294 120.292 26.49 119.98 27.998C119.668 29.454 119.46 31.3 119.356 33.536H132.928V31.43C132.928 28.466 132.46 26.152 131.524 24.488C130.64 22.824 129.028 21.992 126.688 21.992ZM193.81 55.22C193.394 55.324 192.822 55.454 192.094 55.61C191.366 55.766 190.586 55.896 189.754 56C188.974 56.156 188.168 56.286 187.336 56.39C186.504 56.494 185.776 56.546 185.152 56.546C182.344 56.546 179.952 56.156 177.976 55.376C176 54.544 174.362 53.062 173.062 50.93C171.814 48.798 170.878 45.886 170.254 42.194C169.682 38.45 169.396 33.666 169.396 27.842C169.396 22.07 169.734 17.442 170.41 13.958C171.086 10.422 172.1 7.692 173.452 5.768C174.856 3.792 176.598 2.492 178.678 1.868C180.758 1.192 183.228 0.853999 186.088 0.853999C187.336 0.853999 188.662 0.983999 190.066 1.244C191.522 1.452 192.77 1.686 193.81 1.946V7.718C192.51 7.406 191.028 7.172 189.364 7.016C187.752 6.808 186.192 6.704 184.684 6.704C183.28 6.704 182.032 6.964 180.94 7.484C179.9 7.952 179.042 8.966 178.366 10.526C177.69 12.034 177.17 14.218 176.806 17.078C176.494 19.886 176.338 23.656 176.338 28.388C176.338 33.276 176.52 37.202 176.884 40.166C177.248 43.078 177.768 45.314 178.444 46.874C179.172 48.434 180.056 49.474 181.096 49.994C182.136 50.462 183.358 50.696 184.762 50.696C186.374 50.696 188.038 50.566 189.754 50.306C191.47 50.046 192.822 49.786 193.81 49.526V55.22ZM223.907 56L223.361 52.802C222.269 53.998 220.995 54.934 219.539 55.61C218.083 56.234 216.367 56.546 214.391 56.546C212.207 56.546 210.387 56.26 208.931 55.688C207.527 55.116 206.383 54.258 205.499 53.114C204.667 51.918 204.069 50.436 203.705 48.668C203.341 46.9 203.159 44.82 203.159 42.428V17H209.789V43.208C209.789 44.456 209.841 45.548 209.945 46.484C210.101 47.42 210.387 48.226 210.803 48.902C211.219 49.578 211.791 50.098 212.519 50.462C213.247 50.774 214.209 50.93 215.405 50.93C216.497 50.93 217.485 50.722 218.369 50.306C219.253 49.89 220.007 49.37 220.631 48.746C221.255 48.122 221.749 47.446 222.113 46.718C222.477 45.938 222.685 45.21 222.737 44.534V17H229.367V56H223.907ZM241.863 56V17H247.323L247.791 20.978C248.675 19.626 249.767 18.534 251.067 17.702C252.367 16.87 253.979 16.454 255.903 16.454C256.839 16.454 257.645 16.506 258.321 16.61C258.997 16.662 259.569 16.74 260.037 16.844V23.786C259.361 23.63 258.581 23.474 257.697 23.318C256.865 23.162 256.085 23.084 255.357 23.084C254.057 23.084 252.965 23.344 252.081 23.864C251.249 24.384 250.547 25.086 249.975 25.97C249.455 26.802 249.065 27.764 248.805 28.856C248.597 29.896 248.493 30.936 248.493 31.976V56H241.863ZM267.829 8.42V1.4H275.239V8.42H267.829ZM268.219 56V17H274.849V56H268.219ZM315.808 35.72C315.808 39.828 315.496 43.234 314.872 45.938C314.248 48.59 313.312 50.722 312.064 52.334C310.816 53.894 309.256 54.986 307.384 55.61C305.564 56.234 303.432 56.546 300.988 56.546C298.596 56.546 296.464 56.234 294.592 55.61C292.772 54.986 291.238 53.894 289.99 52.334C288.742 50.722 287.78 48.59 287.104 45.938C286.48 43.234 286.168 39.828 286.168 35.72C286.168 29.064 287.364 24.202 289.756 21.134C292.148 18.014 295.892 16.454 300.988 16.454C306.084 16.454 309.828 18.014 312.22 21.134C314.612 24.202 315.808 29.064 315.808 35.72ZM309.022 36.89C309.022 34.134 308.892 31.794 308.632 29.87C308.372 27.946 307.93 26.412 307.306 25.268C306.734 24.072 305.928 23.214 304.888 22.694C303.848 22.174 302.548 21.914 300.988 21.914C299.428 21.914 298.128 22.174 297.088 22.694C296.048 23.214 295.216 24.072 294.592 25.268C294.02 26.412 293.604 27.946 293.344 29.87C293.084 31.794 292.954 34.134 292.954 36.89C292.954 41.986 293.552 45.626 294.748 47.81C295.944 49.994 298.024 51.086 300.988 51.086C303.952 51.086 306.032 49.994 307.228 47.81C308.424 45.626 309.022 41.986 309.022 36.89ZM348.315 44.69C348.315 49.006 347.119 52.074 344.727 53.894C342.387 55.662 339.215 56.546 335.211 56.546C332.975 56.546 331.077 56.39 329.517 56.078C327.957 55.818 326.735 55.558 325.851 55.298V49.604C326.319 49.708 326.917 49.838 327.645 49.994C328.425 50.098 329.257 50.228 330.141 50.384C331.025 50.488 331.935 50.592 332.871 50.696C333.859 50.8 334.821 50.852 335.757 50.852C336.797 50.852 337.655 50.696 338.331 50.384C339.059 50.02 339.631 49.578 340.047 49.058C340.515 48.486 340.853 47.862 341.061 47.186C341.269 46.458 341.373 45.756 341.373 45.08C341.373 43.208 341.035 41.83 340.359 40.946C339.735 40.062 338.435 39.438 336.459 39.074C332.455 38.346 329.621 37.098 327.957 35.33C326.345 33.51 325.539 31.144 325.539 28.232C325.539 26.1 325.877 24.306 326.553 22.85C327.229 21.342 328.139 20.12 329.283 19.184C330.479 18.248 331.857 17.572 333.417 17.156C335.029 16.688 336.771 16.454 338.643 16.454C340.671 16.454 342.361 16.636 343.713 17C345.117 17.312 346.209 17.572 346.989 17.78V23.474C345.637 23.162 344.337 22.85 343.089 22.538C341.841 22.226 340.151 22.07 338.019 22.07C336.823 22.07 335.835 22.252 335.055 22.616C334.327 22.928 333.755 23.37 333.339 23.942C332.923 24.462 332.637 25.06 332.481 25.736C332.377 26.412 332.325 27.114 332.325 27.842C332.325 30.702 333.989 32.392 337.317 32.912C341.373 33.588 344.207 34.862 345.819 36.734C347.483 38.606 348.315 41.258 348.315 44.69ZM358.092 8.42V1.4H365.502V8.42H358.092ZM358.482 56V17H365.112V56H358.482ZM385.011 22.85V46.64C385.011 47.004 385.063 47.446 385.167 47.966C385.271 48.434 385.453 48.902 385.713 49.37C386.025 49.786 386.415 50.15 386.883 50.462C387.403 50.774 388.079 50.93 388.911 50.93C390.107 50.93 391.121 50.852 391.953 50.696C392.785 50.488 393.487 50.306 394.059 50.15V55.61C393.539 55.766 392.629 55.948 391.329 56.156C390.081 56.416 388.755 56.546 387.351 56.546C385.791 56.546 384.439 56.286 383.295 55.766C382.151 55.246 381.215 54.518 380.487 53.582C379.759 52.646 379.213 51.554 378.849 50.306C378.537 49.058 378.381 47.706 378.381 46.25V22.85H373.311V17H378.381V7.64H385.011V17H394.059V22.85H385.011ZM418.496 59.432C418.08 60.94 417.638 62.318 417.17 63.566C416.702 64.866 416.104 65.958 415.376 66.842C414.7 67.726 413.816 68.402 412.724 68.87C411.684 69.39 410.384 69.65 408.824 69.65C407.992 69.65 407.16 69.598 406.328 69.494C405.496 69.39 404.846 69.286 404.378 69.182V63.488C404.95 63.592 405.574 63.67 406.25 63.722C406.926 63.774 407.654 63.8 408.434 63.8C409.89 63.8 410.93 62.63 411.554 60.29L412.802 56H411.242L399.152 17H406.328L415.376 49.214L423.02 17H429.806L418.496 59.432Z" fill="white"/>
<path d="M29.5087 56H28.5087V57H29.5087V56ZM29.5087 7.016H30.5087L28.5438 6.7533L29.5087 7.016ZM21.1627 37.67V38.67H21.9268L22.1275 37.9327L21.1627 37.67ZM14.6887 37.67L13.7238 37.9327L13.9245 38.67H14.6887V37.67ZM6.34266 7.016L7.30753 6.7533L5.34266 7.016H6.34266ZM6.34266 56V57H7.34266V56H6.34266ZM0.102656 56H-0.897344V57H0.102656V56ZM0.102656 1.4V0.399996H-0.897344V1.4H0.102656ZM11.1007 1.4L12.0698 1.15364L11.8783 0.399996H11.1007V1.4ZM18.1987 29.324L17.2295 29.5704L19.1685 29.5678L18.1987 29.324ZM25.2187 1.4V0.399996H24.4389L24.2488 1.15619L25.2187 1.4ZM35.9827 1.4H36.9827V0.399996H35.9827V1.4ZM35.9827 56V57H36.9827V56H35.9827ZM30.5087 56V7.016H28.5087V56H30.5087ZM28.5438 6.7533L20.1978 37.4073L22.1275 37.9327L30.4735 7.2787L28.5438 6.7533ZM21.1627 36.67H14.6887V38.67H21.1627V36.67ZM15.6535 37.4073L7.30753 6.7533L5.37778 7.2787L13.7238 37.9327L15.6535 37.4073ZM5.34266 7.016V56H7.34266V7.016H5.34266ZM6.34266 55H0.102656V57H6.34266V55ZM1.10266 56V1.4H-0.897344V56H1.10266ZM0.102656 2.4H11.1007V0.399996H0.102656V2.4ZM10.1315 1.64635L17.2295 29.5704L19.1678 29.0776L12.0698 1.15364L10.1315 1.64635ZM19.1685 29.5678L26.1885 1.64381L24.2488 1.15619L17.2288 29.0802L19.1685 29.5678ZM25.2187 2.4H35.9827V0.399996H25.2187V2.4ZM34.9827 1.4V56H36.9827V1.4H34.9827ZM35.9827 55H29.5087V57H35.9827V55ZM76.3775 45.938L77.3509 46.167L77.3519 46.1629L76.3775 45.938ZM73.5695 52.334L74.3504 52.9587L74.3554 52.9525L74.3602 52.9462L73.5695 52.334ZM68.8895 55.61L68.5733 54.6613L68.5652 54.6641L68.8895 55.61ZM56.0975 55.61L55.7732 56.556L55.7813 56.5587L56.0975 55.61ZM51.4955 52.334L50.7048 52.9462L50.7097 52.9525L50.7146 52.9587L51.4955 52.334ZM48.6095 45.938L47.6351 46.1629L47.6377 46.174L47.6405 46.185L48.6095 45.938ZM51.2615 21.134L52.0502 21.7489L52.0551 21.7424L51.2615 21.134ZM73.7255 21.134L72.9319 21.7424L72.9369 21.7489L73.7255 21.134ZM68.8115 25.268L67.9094 25.6995L67.9209 25.7235L67.9336 25.7468L68.8115 25.268ZM66.3935 22.694L65.9463 23.5884L65.9463 23.5884L66.3935 22.694ZM58.5935 22.694L59.0407 23.5884L59.0407 23.5884L58.5935 22.694ZM56.0975 25.268L55.2109 24.8054L55.2069 24.8131L55.2031 24.8208L56.0975 25.268ZM56.2535 47.81L57.1306 47.3297L57.1306 47.3297L56.2535 47.81ZM68.7335 47.81L67.8564 47.3297L67.8564 47.3297L68.7335 47.81ZM76.3135 35.72C76.3135 39.7848 76.0041 43.1089 75.4031 45.7131L77.3519 46.1629C77.9989 43.3591 78.3135 39.8712 78.3135 35.72H76.3135ZM75.4041 45.709C74.8024 48.2661 73.915 50.2543 72.7788 51.7218L74.3602 52.9462C75.7201 51.1897 76.7046 48.9139 77.3509 46.167L75.4041 45.709ZM72.7886 51.7093C71.6595 53.1208 70.26 54.0991 68.5733 54.6613L69.2057 56.5587C71.263 55.8729 72.9836 54.6672 74.3504 52.9587L72.7886 51.7093ZM68.5652 54.6641C66.8734 55.2441 64.8556 55.546 62.4935 55.546V57.546C65.0195 57.546 67.2656 57.2239 69.2138 56.5559L68.5652 54.6641ZM62.4935 55.546C60.187 55.546 58.1648 55.245 56.4137 54.6613L55.7813 56.5587C57.7742 57.223 60.0161 57.546 62.4935 57.546V55.546ZM56.4218 54.6641C54.7885 54.1041 53.4106 53.127 52.2764 51.7093L50.7146 52.9587C52.0765 54.661 53.7665 55.8679 55.7732 56.5559L56.4218 54.6641ZM52.2862 51.7218C51.1455 50.2483 50.2317 48.2533 49.5785 45.691L47.6405 46.185C48.3394 48.9267 49.3496 51.1957 50.7048 52.9462L52.2862 51.7218ZM49.5839 45.7131C48.9829 43.1089 48.6735 39.7848 48.6735 35.72H46.6735C46.6735 39.8712 46.9881 43.3591 47.6351 46.1629L49.5839 45.7131ZM48.6735 35.72C48.6735 29.1436 49.8628 24.5544 52.0501 21.7489L50.4729 20.5191C47.8763 23.8496 46.6735 28.9844 46.6735 35.72H48.6735ZM52.0551 21.7424C54.2041 18.9394 57.608 17.454 62.4935 17.454V15.454C57.187 15.454 53.1029 17.0886 50.4679 20.5256L52.0551 21.7424ZM62.4935 17.454C67.379 17.454 70.7829 18.9394 72.9319 21.7424L74.5191 20.5256C71.8841 17.0886 67.8 15.454 62.4935 15.454V17.454ZM72.9369 21.7489C75.1243 24.5544 76.3135 29.1436 76.3135 35.72H78.3135C78.3135 28.9844 77.1108 23.8496 74.5141 20.5191L72.9369 21.7489ZM71.5275 36.89C71.5275 34.1061 71.3964 31.7186 71.1285 29.7361L69.1465 30.0039C69.3986 31.8694 69.5275 34.1619 69.5275 36.89H71.5275ZM71.1285 29.7361C70.8594 27.7447 70.3931 26.0792 69.6894 24.7891L67.9336 25.7468C68.478 26.7448 68.8956 28.1473 69.1465 30.0039L71.1285 29.7361ZM69.7137 24.8365C69.0598 23.4694 68.107 22.4327 66.8407 21.7996L65.9463 23.5884C66.76 23.9953 67.4192 24.6746 67.9094 25.6995L69.7137 24.8365ZM66.8407 21.7996C65.6228 21.1906 64.1582 20.914 62.4935 20.914V22.914C63.9489 22.914 65.0843 23.1574 65.9463 23.5884L66.8407 21.7996ZM62.4935 20.914C60.8289 20.914 59.3643 21.1906 58.1463 21.7996L59.0407 23.5884C59.9028 23.1574 61.0382 22.914 62.4935 22.914V20.914ZM58.1463 21.7996C56.8891 22.4282 55.9162 23.4538 55.2109 24.8054L56.9841 25.7306C57.5269 24.6902 58.218 23.9998 59.0407 23.5884L58.1463 21.7996ZM55.2031 24.8208C54.5634 26.1002 54.1264 27.7535 53.8585 29.7361L55.8405 30.0039C56.0926 28.1385 56.4877 26.7238 56.9919 25.7152L55.2031 24.8208ZM53.8585 29.7361C53.5906 31.7186 53.4595 34.1061 53.4595 36.89H55.4595C55.4595 34.1619 55.5884 31.8694 55.8405 30.0039L53.8585 29.7361ZM53.4595 36.89C53.4595 42.0127 54.0518 45.8715 55.3764 48.2903L57.1306 47.3297C56.0632 45.3805 55.4595 41.9593 55.4595 36.89H53.4595ZM55.3764 48.2903C56.7845 50.8616 59.2473 52.086 62.4935 52.086V50.086C59.8117 50.086 58.1145 49.1264 57.1306 47.3297L55.3764 48.2903ZM62.4935 52.086C65.7397 52.086 68.2025 50.8616 69.6106 48.2903L67.8564 47.3297C66.8725 49.1264 65.1753 50.086 62.4935 50.086V52.086ZM69.6106 48.2903C70.9352 45.8715 71.5275 42.0127 71.5275 36.89H69.5275C69.5275 41.9593 68.9238 45.3805 67.8564 47.3297L69.6106 48.2903ZM88.6052 56H87.6052V57H88.6052V56ZM88.6052 17V16H87.6052V17H88.6052ZM94.0652 17L95.0584 16.8832L94.9545 16H94.0652V17ZM94.5332 20.978L93.5401 21.0948L93.8621 23.8318L95.3702 21.5252L94.5332 20.978ZM97.8092 17.702L98.3483 18.5443L98.3483 18.5443L97.8092 17.702ZM105.063 16.61L104.911 17.5984L104.949 17.6041L104.987 17.6071L105.063 16.61ZM106.779 16.844H107.779V16.0418L106.996 15.8678L106.779 16.844ZM106.779 23.786L106.554 24.7604L107.779 25.043V23.786H106.779ZM104.439 23.318L104.255 24.3009L104.265 24.3028L104.439 23.318ZM98.8232 23.864L98.3162 23.0021L98.3046 23.0089L98.2932 23.016L98.8232 23.864ZM96.7172 25.97L95.8777 25.4267L95.8734 25.4333L95.8692 25.44L96.7172 25.97ZM95.5472 28.856L94.5744 28.6244L94.5702 28.6421L94.5667 28.6599L95.5472 28.856ZM95.2352 56V57H96.2352V56H95.2352ZM89.6052 56V17H87.6052V56H89.6052ZM88.6052 18H94.0652V16H88.6052V18ZM93.0721 17.1168L93.5401 21.0948L95.5264 20.8612L95.0584 16.8832L93.0721 17.1168ZM95.3702 21.5252C96.1805 20.2859 97.1729 19.2965 98.3483 18.5443L97.2702 16.8597C95.8456 17.7715 94.6539 18.9661 93.6963 20.4307L95.3702 21.5252ZM98.3483 18.5443C99.4519 17.838 100.865 17.454 102.645 17.454V15.454C100.577 15.454 98.7666 15.902 97.2702 16.8597L98.3483 18.5443ZM102.645 17.454C103.547 17.454 104.3 17.5043 104.911 17.5984L105.215 15.6216C104.474 15.5077 103.615 15.454 102.645 15.454V17.454ZM104.987 17.6071C105.633 17.6568 106.155 17.7297 106.562 17.8202L106.996 15.8678C106.467 15.7503 105.845 15.6672 105.14 15.6129L104.987 17.6071ZM105.779 16.844V23.786H107.779V16.844H105.779ZM107.004 22.8116C106.307 22.6508 105.509 22.4914 104.613 22.3332L104.265 24.3028C105.137 24.4566 105.899 24.6092 106.554 24.7604L107.004 22.8116ZM104.624 22.3351C103.74 22.1695 102.898 22.084 102.099 22.084V24.084C102.756 24.084 103.474 24.1545 104.255 24.3009L104.624 22.3351ZM102.099 22.084C100.668 22.084 99.3899 22.3705 98.3162 23.0021L99.3303 24.7259C100.025 24.3175 100.931 24.084 102.099 24.084V22.084ZM98.2932 23.016C97.328 23.6193 96.5233 24.4289 95.8777 25.4267L97.5568 26.5132C98.0551 25.7431 98.6544 25.1487 99.3532 24.712L98.2932 23.016ZM95.8692 25.44C95.2841 26.3762 94.856 27.4418 94.5744 28.6244L96.52 29.0876C96.7585 28.0862 97.1104 27.2278 97.5652 26.5L95.8692 25.44ZM94.5667 28.6599C94.346 29.7632 94.2352 30.8689 94.2352 31.976H96.2352C96.2352 31.0031 96.3325 30.0288 96.5278 29.0521L94.5667 28.6599ZM94.2352 31.976V56H96.2352V31.976H94.2352ZM95.2352 55H88.6052V57H95.2352V55ZM119.278 38.84V37.84H118.258L118.278 38.8604L119.278 38.84ZM119.824 45.08L118.842 45.27L118.846 45.2887L118.85 45.3072L119.824 45.08ZM121.228 48.746L122.068 48.2027L122.068 48.2027L121.228 48.746ZM123.256 50.54L122.885 51.4685L122.912 51.4794L122.94 51.4887L123.256 50.54ZM131.836 50.54L131.982 51.5294L131.993 51.5276L132.005 51.5256L131.836 50.54ZM136.36 49.682H137.36V48.4413L136.148 48.7048L136.36 49.682ZM136.36 55.298L136.64 56.258L137.36 56.048V55.298H136.36ZM131.602 56.156L131.495 55.1618L131.48 55.1634L131.465 55.1655L131.602 56.156ZM120.682 55.844L120.419 56.8088L120.426 56.8107L120.682 55.844ZM116.314 53.036L115.553 53.6845L116.314 53.036ZM113.584 47.03L112.611 47.259L112.612 47.2634L113.584 47.03ZM113.506 27.296L112.535 27.0581L112.533 27.0675L112.53 27.077L113.506 27.296ZM116.236 21.056L117.039 21.6518L117.039 21.6518L116.236 21.056ZM120.682 17.546L121.063 18.4707L121.063 18.4707L120.682 17.546ZM136.438 20.9L135.599 21.4445L135.605 21.453L135.611 21.4615L136.438 20.9ZM139.402 38.84V39.84H140.402V38.84H139.402ZM121.306 24.41L120.467 23.8667L120.467 23.8667L121.306 24.41ZM119.98 27.998L120.958 28.2075L120.959 28.2006L119.98 27.998ZM119.356 33.536L118.357 33.4895L118.309 34.536H119.356V33.536ZM132.928 33.536V34.536H133.928V33.536H132.928ZM131.524 24.488L130.641 24.9572L130.647 24.9678L130.653 24.9783L131.524 24.488ZM118.278 38.8604C118.331 41.4379 118.515 43.5804 118.842 45.27L120.806 44.89C120.509 43.3556 120.329 41.3381 120.278 38.8196L118.278 38.8604ZM118.85 45.3072C119.228 46.9272 119.73 48.2717 120.389 49.2893L122.068 48.2027C121.582 47.4523 121.148 46.3528 120.798 44.8528L118.85 45.3072ZM120.389 49.2893C121.044 50.3027 121.869 51.0621 122.885 51.4685L123.628 49.6115C123.084 49.3939 122.556 48.9573 122.068 48.2027L120.389 49.2893ZM122.94 51.4887C123.84 51.7887 124.834 51.93 125.908 51.93V49.93C125.007 49.93 124.232 49.8113 123.572 49.5913L122.94 51.4887ZM125.908 51.93C128.131 51.93 130.156 51.7978 131.982 51.5294L131.691 49.5506C129.98 49.8022 128.054 49.93 125.908 49.93V51.93ZM132.005 51.5256C133.833 51.2122 135.357 50.9235 136.573 50.6592L136.148 48.7048C134.971 48.9605 133.479 49.2438 131.667 49.5544L132.005 51.5256ZM135.36 49.682V55.298H137.36V49.682H135.36ZM136.08 54.338C134.909 54.6797 133.386 54.9574 131.495 55.1618L131.71 57.1502C133.667 56.9386 135.316 56.6443 136.64 56.258L136.08 54.338ZM131.465 55.1655C129.624 55.4212 128.033 55.546 126.688 55.546V57.546C128.151 57.546 129.837 57.4108 131.74 57.1465L131.465 55.1655ZM126.688 55.546C124.52 55.546 122.606 55.3189 120.938 54.8773L120.426 56.8107C122.294 57.3051 124.384 57.546 126.688 57.546V55.546ZM120.945 54.8792C119.431 54.4662 118.146 53.6444 117.075 52.3875L115.553 53.6845C116.874 55.2356 118.501 56.2858 120.419 56.8088L120.945 54.8792ZM117.075 52.3875C116.017 51.145 115.159 49.3075 114.557 46.7966L112.612 47.2634C113.257 49.9525 114.219 52.119 115.553 53.6845L117.075 52.3875ZM114.558 46.801C113.959 44.2551 113.648 40.8312 113.648 36.5H111.648C111.648 40.9048 111.962 44.5009 112.611 47.259L114.558 46.801ZM113.648 36.5C113.648 32.9604 113.931 29.9701 114.482 27.515L112.53 27.077C111.938 29.7179 111.648 32.8636 111.648 36.5H113.648ZM114.477 27.5339C115.079 25.0774 115.943 23.1295 117.039 21.6518L115.433 20.4602C114.137 22.2064 113.181 24.4186 112.535 27.0581L114.477 27.5339ZM117.039 21.6518C118.133 20.1782 119.471 19.126 121.063 18.4707L120.301 16.6213C118.357 17.422 116.732 18.7098 115.433 20.4602L117.039 21.6518ZM121.063 18.4707C122.686 17.8022 124.606 17.454 126.844 17.454V15.454C124.402 15.454 122.214 15.8338 120.301 16.6213L121.063 18.4707ZM126.844 17.454C131.079 17.454 133.909 18.8407 135.599 21.4445L137.277 20.3555C135.119 17.0313 131.553 15.454 126.844 15.454V17.454ZM135.611 21.4615C137.433 24.1475 138.402 27.9543 138.402 32.99H140.402C140.402 27.7297 139.395 23.4765 137.266 20.3385L135.611 21.4615ZM138.402 32.99V38.84H140.402V32.99H138.402ZM139.402 37.84H119.278V39.84H139.402V37.84ZM126.688 20.992C125.347 20.992 124.145 21.1869 123.109 21.6133L123.871 23.4627C124.603 23.1611 125.533 22.992 126.688 22.992V20.992ZM123.109 21.6133C122.018 22.0626 121.137 22.83 120.467 23.8667L122.146 24.9532C122.619 24.222 123.194 23.7414 123.871 23.4627L123.109 21.6133ZM120.467 23.8667C119.804 24.891 119.327 26.2173 119.001 27.7954L120.959 28.2006C121.257 26.7627 121.664 25.697 122.146 24.9532L120.467 23.8667ZM119.002 27.7885C118.675 29.3177 118.463 31.2231 118.357 33.4895L120.355 33.5825C120.458 31.3769 120.662 29.5903 120.958 28.2075L119.002 27.7885ZM119.356 34.536H132.928V32.536H119.356V34.536ZM133.928 33.536V31.43H131.928V33.536H133.928ZM133.928 31.43C133.928 28.3807 133.45 25.8721 132.396 23.9977L130.653 24.9783C131.47 26.4319 131.928 28.5513 131.928 31.43H133.928ZM132.407 24.0188C131.305 21.9441 129.292 20.992 126.688 20.992V22.992C128.764 22.992 129.975 23.7039 130.641 24.9572L132.407 24.0188ZM193.81 55.22L194.053 56.1901L194.81 56.0008V55.22H193.81ZM192.094 55.61L191.885 54.6322L192.094 55.61ZM189.754 56L189.63 55.0077L189.594 55.0123L189.558 55.0194L189.754 56ZM187.336 56.39L187.46 57.3823L187.46 57.3823L187.336 56.39ZM177.976 55.376L177.588 56.2976L177.599 56.302L177.609 56.3062L177.976 55.376ZM173.062 50.93L172.199 51.4352L172.204 51.4429L172.208 51.4506L173.062 50.93ZM170.254 42.194L169.266 42.345L169.267 42.3528L169.268 42.3607L170.254 42.194ZM170.41 13.958L171.392 14.1485L171.392 14.1458L170.41 13.958ZM173.452 5.768L172.637 5.18878L172.634 5.19305L173.452 5.768ZM178.678 1.868L178.966 2.82583L178.976 2.82255L178.987 2.81903L178.678 1.868ZM190.066 1.244L189.884 2.22728L189.904 2.23103L189.925 2.23395L190.066 1.244ZM193.81 1.946H194.81V1.16522L194.053 0.975856L193.81 1.946ZM193.81 7.718L193.577 8.69039L194.81 8.98639V7.718H193.81ZM189.364 7.016L189.236 8.00778L189.253 8.01001L189.271 8.01163L189.364 7.016ZM180.94 7.484L181.351 8.39592L181.36 8.39149L181.37 8.38686L180.94 7.484ZM178.366 10.526L179.279 10.9351L179.284 10.9236L178.366 10.526ZM176.806 17.078L175.814 16.9517L175.813 16.9596L175.812 16.9676L176.806 17.078ZM176.884 40.166L175.892 40.2879L175.892 40.29L176.884 40.166ZM178.444 46.874L177.527 47.2716L177.532 47.2843L177.538 47.2969L178.444 46.874ZM181.096 49.994L180.649 50.8884L180.667 50.8975L180.686 50.9059L181.096 49.994ZM189.754 50.306L189.604 49.3173L189.604 49.3173L189.754 50.306ZM193.81 49.526H194.81V48.2288L193.556 48.5589L193.81 49.526ZM193.568 54.2499C193.168 54.3498 192.608 54.4771 191.885 54.6322L192.304 56.5878C193.036 56.4309 193.621 56.2982 194.053 56.1901L193.568 54.2499ZM191.885 54.6322C191.188 54.7814 190.437 54.9069 189.63 55.0077L189.878 56.9923C190.735 56.8851 191.544 56.7506 192.304 56.5878L191.885 54.6322ZM189.558 55.0194C188.803 55.1704 188.021 55.2966 187.212 55.3977L187.46 57.3823C188.315 57.2754 189.145 57.1416 189.95 56.9806L189.558 55.0194ZM187.212 55.3977C186.408 55.4982 185.723 55.546 185.152 55.546V57.546C185.829 57.546 186.6 57.4898 187.46 57.3823L187.212 55.3977ZM185.152 55.546C182.432 55.546 180.171 55.1675 178.343 54.4458L177.609 56.3062C179.733 57.1445 182.257 57.546 185.152 57.546V55.546ZM178.364 54.4544C176.612 53.7167 175.125 52.3926 173.916 50.4094L172.208 51.4506C173.599 53.7314 175.388 55.3713 177.588 56.2976L178.364 54.4544ZM173.925 50.4248C172.761 48.4367 171.853 45.6553 171.24 42.0273L169.268 42.3607C169.903 46.1167 170.867 49.1593 172.199 51.4352L173.925 50.4248ZM171.243 42.043C170.681 38.368 170.396 33.6392 170.396 27.842H168.396C168.396 33.6928 168.683 38.532 169.266 42.345L171.243 42.043ZM170.396 27.842C170.396 22.0996 170.733 17.5432 171.392 14.1485L169.428 13.7675C168.735 17.3408 168.396 22.0404 168.396 27.842H170.396ZM171.392 14.1458C172.055 10.6823 173.031 8.10595 174.27 6.34294L172.634 5.19305C171.169 7.27804 170.118 10.1617 169.428 13.7702L171.392 14.1458ZM174.267 6.3472C175.558 4.53036 177.123 3.37844 178.966 2.82583L178.391 0.910173C176.073 1.60555 174.154 3.05363 172.637 5.18879L174.267 6.3472ZM178.987 2.81903C180.942 2.1837 183.303 1.854 186.088 1.854V-0.146001C183.154 -0.146001 180.574 0.200299 178.369 0.916966L178.987 2.81903ZM186.088 1.854C187.267 1.854 188.532 1.97685 189.884 2.22728L190.248 0.260716C188.793 -0.0088502 187.405 -0.146001 186.088 -0.146001V1.854ZM189.925 2.23395C191.358 2.43874 192.571 2.66689 193.568 2.91614L194.053 0.975856C192.97 0.705107 191.686 0.465262 190.208 0.254049L189.925 2.23395ZM192.81 1.946V7.718H194.81V1.946H192.81ZM194.044 6.74561C192.688 6.42023 191.158 6.17975 189.458 6.02036L189.271 8.01163C190.899 8.16425 192.333 8.39177 193.577 8.69039L194.044 6.74561ZM189.492 6.02422C187.841 5.81116 186.238 5.704 184.684 5.704V7.704C186.146 7.704 187.663 7.80483 189.236 8.00778L189.492 6.02422ZM184.684 5.704C183.155 5.704 181.757 5.98767 180.51 6.58114L181.37 8.38686C182.308 7.94033 183.405 7.704 184.684 7.704V5.704ZM180.53 6.57208C179.173 7.18259 178.176 8.4494 177.449 10.1284L179.284 10.9236C179.908 9.48259 180.627 8.7214 181.351 8.39592L180.53 6.57208ZM177.454 10.1169C176.718 11.7576 176.183 14.0552 175.814 16.9517L177.798 17.2043C178.158 14.3808 178.662 12.3104 179.279 10.9351L177.454 10.1169ZM175.812 16.9676C175.494 19.8284 175.338 23.6401 175.338 28.388H177.338C177.338 23.6719 177.494 19.9436 177.8 17.1884L175.812 16.9676ZM175.338 28.388C175.338 33.2946 175.521 37.2662 175.892 40.2879L177.877 40.0441C177.52 37.1378 177.338 33.2574 177.338 28.388H175.338ZM175.892 40.29C176.26 43.2386 176.795 45.5836 177.527 47.2716L179.362 46.4764C178.741 45.0444 178.236 42.9174 177.876 40.042L175.892 40.29ZM177.538 47.2969C178.317 48.9668 179.33 50.2291 180.649 50.8884L181.543 49.0996C180.782 48.7189 180.027 47.9012 179.35 46.4511L177.538 47.2969ZM180.686 50.9059C181.881 51.4438 183.249 51.696 184.762 51.696V49.696C183.468 49.696 182.391 49.4802 181.507 49.0821L180.686 50.9059ZM184.762 51.696C186.428 51.696 188.142 51.5617 189.904 51.2947L189.604 49.3173C187.934 49.5703 186.32 49.696 184.762 49.696V51.696ZM189.904 51.2947C191.635 51.0325 193.027 50.7662 194.065 50.4931L193.556 48.5589C192.618 48.8058 191.306 49.0595 189.604 49.3173L189.904 51.2947ZM192.81 49.526V55.22H194.81V49.526H192.81ZM223.907 56L222.921 56.1683L223.063 57H223.907V56ZM223.361 52.802L224.346 52.6337L224.002 50.6165L222.622 52.1277L223.361 52.802ZM219.539 55.61L219.933 56.5291L219.946 56.5233L219.96 56.517L219.539 55.61ZM208.931 55.688L208.553 56.6142L208.565 56.6188L208.931 55.688ZM205.499 53.114L204.678 53.6851L204.692 53.7056L204.707 53.7254L205.499 53.114ZM203.159 17V16H202.159V17H203.159ZM209.789 17H210.789V16H209.789V17ZM209.945 46.484L208.951 46.5944L208.954 46.6215L208.958 46.6484L209.945 46.484ZM210.803 48.902L211.654 48.3779L211.654 48.3779L210.803 48.902ZM212.519 50.462L212.071 51.3564L212.098 51.3696L212.125 51.3811L212.519 50.462ZM218.369 50.306L217.943 49.4012L217.943 49.4012L218.369 50.306ZM220.631 48.746L221.338 49.4531L221.338 49.4531L220.631 48.746ZM222.113 46.718L223.007 47.1652L223.013 47.1531L223.019 47.1409L222.113 46.718ZM222.737 44.534L223.734 44.6107L223.737 44.5724V44.534H222.737ZM222.737 17V16H221.737V17H222.737ZM229.367 17H230.367V16H229.367V17ZM229.367 56V57H230.367V56H229.367ZM224.892 55.8317L224.346 52.6337L222.375 52.9703L222.921 56.1683L224.892 55.8317ZM222.622 52.1277C221.619 53.2268 220.452 54.0833 219.117 54.703L219.96 56.517C221.537 55.7847 222.919 54.7692 224.099 53.4763L222.622 52.1277ZM219.145 54.6909C217.84 55.2501 216.264 55.546 214.391 55.546V57.546C216.47 57.546 218.325 57.2179 219.933 56.5291L219.145 54.6909ZM214.391 55.546C212.286 55.546 210.6 55.2692 209.296 54.7572L208.565 56.6188C210.174 57.2508 212.127 57.546 214.391 57.546V55.546ZM209.308 54.7619C208.059 54.2531 207.061 53.5001 206.29 52.5026L204.707 53.7254C205.704 55.0159 206.994 55.9789 208.553 56.6141L209.308 54.7619ZM206.319 52.5429C205.581 51.4812 205.027 50.1325 204.684 48.4663L202.725 48.8697C203.11 50.7395 203.752 52.3548 204.678 53.6851L206.319 52.5429ZM204.684 48.4663C204.337 46.7821 204.159 44.7727 204.159 42.428H202.159C202.159 44.8673 202.344 47.0179 202.725 48.8697L204.684 48.4663ZM204.159 42.428V17H202.159V42.428H204.159ZM203.159 18H209.789V16H203.159V18ZM208.789 17V43.208H210.789V17H208.789ZM208.789 43.208C208.789 44.4818 208.842 45.6122 208.951 46.5944L210.938 46.3736C210.84 45.4838 210.789 44.4302 210.789 43.208H208.789ZM208.958 46.6484C209.131 47.6875 209.455 48.6208 209.951 49.4261L211.654 48.3779C211.318 47.8312 211.07 47.1525 210.931 46.3196L208.958 46.6484ZM209.951 49.4261C210.467 50.265 211.181 50.9113 212.071 51.3564L212.966 49.5676C212.4 49.2847 211.97 48.891 211.654 48.3779L209.951 49.4261ZM212.125 51.3811C213.024 51.7666 214.136 51.93 215.405 51.93V49.93C214.282 49.93 213.469 49.7814 212.913 49.5429L212.125 51.3811ZM215.405 51.93C216.626 51.93 217.762 51.6965 218.794 51.2108L217.943 49.4012C217.207 49.7475 216.367 49.93 215.405 49.93V51.93ZM218.794 51.2108C219.772 50.7509 220.624 50.167 221.338 49.4531L219.923 48.0389C219.389 48.573 218.733 49.0291 217.943 49.4012L218.794 51.2108ZM221.338 49.4531C222.031 48.7595 222.591 47.9971 223.007 47.1652L221.218 46.2708C220.906 46.8949 220.478 47.4845 219.923 48.0389L221.338 49.4531ZM223.019 47.1409C223.421 46.28 223.67 45.4341 223.734 44.6107L221.74 44.4573C221.699 44.9859 221.533 45.596 221.206 46.2951L223.019 47.1409ZM223.737 44.534V17H221.737V44.534H223.737ZM222.737 18H229.367V16H222.737V18ZM228.367 17V56H230.367V17H228.367ZM229.367 55H223.907V57H229.367V55ZM241.863 56H240.863V57H241.863V56ZM241.863 17V16H240.863V17H241.863ZM247.323 17L248.316 16.8832L248.212 16H247.323V17ZM247.791 20.978L246.798 21.0948L247.12 23.8318L248.628 21.5252L247.791 20.978ZM251.067 17.702L251.606 18.5443L251.606 18.5443L251.067 17.702ZM258.321 16.61L258.169 17.5984L258.207 17.6041L258.244 17.6071L258.321 16.61ZM260.037 16.844H261.037V16.0418L260.254 15.8678L260.037 16.844ZM260.037 23.786L259.812 24.7604L261.037 25.043V23.786H260.037ZM257.697 23.318L257.513 24.3009L257.523 24.3028L257.697 23.318ZM252.081 23.864L251.574 23.0021L251.562 23.0089L251.551 23.016L252.081 23.864ZM249.975 25.97L249.135 25.4267L249.131 25.4333L249.127 25.44L249.975 25.97ZM248.805 28.856L247.832 28.6244L247.828 28.6421L247.824 28.6599L248.805 28.856ZM248.493 56V57H249.493V56H248.493ZM242.863 56V17H240.863V56H242.863ZM241.863 18H247.323V16H241.863V18ZM246.33 17.1168L246.798 21.0948L248.784 20.8612L248.316 16.8832L246.33 17.1168ZM248.628 21.5252C249.438 20.2859 250.431 19.2965 251.606 18.5443L250.528 16.8597C249.103 17.7715 247.912 18.9661 246.954 20.4307L248.628 21.5252ZM251.606 18.5443C252.71 17.838 254.123 17.454 255.903 17.454V15.454C253.835 15.454 252.024 15.902 250.528 16.8597L251.606 18.5443ZM255.903 17.454C256.805 17.454 257.558 17.5043 258.169 17.5984L258.473 15.6216C257.732 15.5077 256.873 15.454 255.903 15.454V17.454ZM258.244 17.6071C258.891 17.6568 259.413 17.7297 259.82 17.8202L260.254 15.8678C259.725 15.7503 259.103 15.6672 258.398 15.6129L258.244 17.6071ZM259.037 16.844V23.786H261.037V16.844H259.037ZM260.262 22.8116C259.565 22.6508 258.767 22.4914 257.871 22.3332L257.523 24.3028C258.395 24.4566 259.157 24.6092 259.812 24.7604L260.262 22.8116ZM257.881 22.3351C256.998 22.1695 256.156 22.084 255.357 22.084V24.084C256.014 24.084 256.732 24.1545 257.513 24.3009L257.881 22.3351ZM255.357 22.084C253.926 22.084 252.648 22.3705 251.574 23.0021L252.588 24.7259C253.282 24.3175 254.188 24.084 255.357 24.084V22.084ZM251.551 23.016C250.586 23.6193 249.781 24.4289 249.135 25.4267L250.815 26.5132C251.313 25.7431 251.912 25.1487 252.611 24.712L251.551 23.016ZM249.127 25.44C248.542 26.3762 248.114 27.4418 247.832 28.6244L249.778 29.0876C250.016 28.0862 250.368 27.2278 250.823 26.5L249.127 25.44ZM247.824 28.6599C247.604 29.7632 247.493 30.8689 247.493 31.976H249.493C249.493 31.0031 249.59 30.0288 249.786 29.0521L247.824 28.6599ZM247.493 31.976V56H249.493V31.976H247.493ZM248.493 55H241.863V57H248.493V55ZM267.829 8.42H266.829V9.42H267.829V8.42ZM267.829 1.4V0.399996H266.829V1.4H267.829ZM275.239 1.4H276.239V0.399996H275.239V1.4ZM275.239 8.42V9.42H276.239V8.42H275.239ZM268.219 56H267.219V57H268.219V56ZM268.219 17V16H267.219V17H268.219ZM274.849 17H275.849V16H274.849V17ZM274.849 56V57H275.849V56H274.849ZM268.829 8.42V1.4H266.829V8.42H268.829ZM267.829 2.4H275.239V0.399996H267.829V2.4ZM274.239 1.4V8.42H276.239V1.4H274.239ZM275.239 7.42H267.829V9.42H275.239V7.42ZM269.219 56V17H267.219V56H269.219ZM268.219 18H274.849V16H268.219V18ZM273.849 17V56H275.849V17H273.849ZM274.849 55H268.219V57H274.849V55ZM314.872 45.938L315.845 46.167L315.846 46.1629L314.872 45.938ZM312.064 52.334L312.845 52.9587L312.85 52.9525L312.854 52.9462L312.064 52.334ZM307.384 55.61L307.067 54.6613L307.059 54.6641L307.384 55.61ZM294.592 55.61L294.267 56.556L294.275 56.5587L294.592 55.61ZM289.99 52.334L289.199 52.9462L289.204 52.9525L289.209 52.9587L289.99 52.334ZM287.104 45.938L286.129 46.1629L286.132 46.174L286.135 46.185L287.104 45.938ZM289.756 21.134L290.544 21.7489L290.549 21.7424L289.756 21.134ZM312.22 21.134L311.426 21.7424L311.431 21.7489L312.22 21.134ZM307.306 25.268L306.404 25.6995L306.415 25.7235L306.428 25.7468L307.306 25.268ZM304.888 22.694L304.44 23.5884L304.44 23.5884L304.888 22.694ZM297.088 22.694L297.535 23.5884L297.535 23.5884L297.088 22.694ZM294.592 25.268L293.705 24.8054L293.701 24.8131L293.697 24.8208L294.592 25.268ZM294.748 47.81L295.625 47.3297L295.625 47.3297L294.748 47.81ZM307.228 47.81L306.351 47.3297L306.351 47.3297L307.228 47.81ZM314.808 35.72C314.808 39.7848 314.498 43.1089 313.897 45.7131L315.846 46.1629C316.493 43.3591 316.808 39.8712 316.808 35.72H314.808ZM313.898 45.709C313.297 48.2661 312.409 50.2543 311.273 51.7218L312.854 52.9462C314.214 51.1897 315.199 48.9139 315.845 46.167L313.898 45.709ZM311.283 51.7093C310.154 53.1208 308.754 54.0991 307.067 54.6613L307.7 56.5587C309.757 55.8729 311.478 54.6672 312.845 52.9587L311.283 51.7093ZM307.059 54.6641C305.368 55.2441 303.35 55.546 300.988 55.546V57.546C303.514 57.546 305.76 57.2239 307.708 56.5559L307.059 54.6641ZM300.988 55.546C298.681 55.546 296.659 55.245 294.908 54.6613L294.275 56.5587C296.268 57.223 298.51 57.546 300.988 57.546V55.546ZM294.916 54.6641C293.283 54.1041 291.905 53.127 290.771 51.7093L289.209 52.9587C290.571 54.661 292.261 55.8679 294.267 56.5559L294.916 54.6641ZM290.78 51.7218C289.64 50.2483 288.726 48.2533 288.073 45.691L286.135 46.185C286.834 48.9267 287.844 51.1957 289.199 52.9462L290.78 51.7218ZM288.078 45.7131C287.477 43.1089 287.168 39.7848 287.168 35.72H285.168C285.168 39.8712 285.482 43.3591 286.129 46.1629L288.078 45.7131ZM287.168 35.72C287.168 29.1436 288.357 24.5544 290.544 21.7489L288.967 20.5191C286.37 23.8496 285.168 28.9844 285.168 35.72H287.168ZM290.549 21.7424C292.698 18.9394 296.102 17.454 300.988 17.454V15.454C295.681 15.454 291.597 17.0886 288.962 20.5256L290.549 21.7424ZM300.988 17.454C305.873 17.454 309.277 18.9394 311.426 21.7424L313.013 20.5256C310.378 17.0886 306.294 15.454 300.988 15.454V17.454ZM311.431 21.7489C313.618 24.5544 314.808 29.1436 314.808 35.72H316.808C316.808 28.9844 315.605 23.8496 313.008 20.5191L311.431 21.7489ZM310.022 36.89C310.022 34.1061 309.891 31.7186 309.623 29.7361L307.641 30.0039C307.893 31.8694 308.022 34.1619 308.022 36.89H310.022ZM309.623 29.7361C309.354 27.7447 308.887 26.0792 308.184 24.7891L306.428 25.7468C306.972 26.7448 307.39 28.1473 307.641 30.0039L309.623 29.7361ZM308.208 24.8365C307.554 23.4694 306.601 22.4327 305.335 21.7996L304.44 23.5884C305.254 23.9953 305.913 24.6746 306.404 25.6995L308.208 24.8365ZM305.335 21.7996C304.117 21.1906 302.652 20.914 300.988 20.914V22.914C302.443 22.914 303.578 23.1574 304.44 23.5884L305.335 21.7996ZM300.988 20.914C299.323 20.914 297.858 21.1906 296.64 21.7996L297.535 23.5884C298.397 23.1574 299.532 22.914 300.988 22.914V20.914ZM296.64 21.7996C295.383 22.4282 294.41 23.4538 293.705 24.8054L295.478 25.7306C296.021 24.6902 296.712 23.9998 297.535 23.5884L296.64 21.7996ZM293.697 24.8208C293.057 26.1002 292.621 27.7535 292.353 29.7361L294.335 30.0039C294.587 28.1385 294.982 26.7238 295.486 25.7152L293.697 24.8208ZM292.353 29.7361C292.085 31.7186 291.954 34.1061 291.954 36.89H293.954C293.954 34.1619 294.083 31.8694 294.335 30.0039L292.353 29.7361ZM291.954 36.89C291.954 42.0127 292.546 45.8715 293.871 48.2903L295.625 47.3297C294.557 45.3805 293.954 41.9593 293.954 36.89H291.954ZM293.871 48.2903C295.279 50.8616 297.741 52.086 300.988 52.086V50.086C298.306 50.086 296.609 49.1264 295.625 47.3297L293.871 48.2903ZM300.988 52.086C304.234 52.086 306.697 50.8616 308.105 48.2903L306.351 47.3297C305.367 49.1264 303.669 50.086 300.988 50.086V52.086ZM308.105 48.2903C309.429 45.8715 310.022 42.0127 310.022 36.89H308.022C308.022 41.9593 307.418 45.3805 306.351 47.3297L308.105 48.2903ZM344.727 53.894L345.33 54.6919L345.333 54.6898L344.727 53.894ZM329.517 56.078L329.713 55.0974L329.698 55.0943L329.682 55.0916L329.517 56.078ZM325.851 55.298H324.851V56.0462L325.569 56.2574L325.851 55.298ZM325.851 49.604L326.068 48.6278L324.851 48.3574V49.604H325.851ZM327.645 49.994L327.436 50.9718L327.474 50.98L327.513 50.9852L327.645 49.994ZM330.141 50.384L329.968 51.3688L329.996 51.3738L330.025 51.3772L330.141 50.384ZM332.871 50.696L332.761 51.6899L332.767 51.6905L332.871 50.696ZM338.331 50.384L338.75 51.292L338.765 51.2854L338.779 51.2784L338.331 50.384ZM340.047 49.058L339.273 48.4247L339.267 48.4333L340.047 49.058ZM341.061 47.186L342.017 47.4801L342.02 47.4704L342.023 47.4607L341.061 47.186ZM340.359 40.946L339.542 41.5227L339.553 41.5383L339.565 41.5535L340.359 40.946ZM336.459 39.074L336.641 38.0905L336.638 38.0901L336.459 39.074ZM327.957 35.33L327.209 35.993L327.219 36.0044L327.229 36.0154L327.957 35.33ZM326.553 22.85L327.46 23.2711L327.466 23.2591L326.553 22.85ZM329.283 19.184L328.667 18.3965L328.659 18.4032L328.65 18.41L329.283 19.184ZM333.417 17.156L333.675 18.1222L333.686 18.1194L333.696 18.1163L333.417 17.156ZM343.713 17L343.453 17.9656L343.475 17.9714L343.496 17.9762L343.713 17ZM346.989 17.78H347.989V17.0117L347.247 16.8138L346.989 17.78ZM346.989 23.474L346.765 24.4484L347.989 24.731V23.474H346.989ZM343.089 22.538L343.332 21.5679L343.332 21.5679L343.089 22.538ZM335.055 22.616L335.449 23.5351L335.464 23.5289L335.478 23.5222L335.055 22.616ZM333.339 23.942L334.12 24.5667L334.135 24.5488L334.148 24.5302L333.339 23.942ZM332.481 25.736L331.507 25.5111L331.499 25.5473L331.493 25.5839L332.481 25.736ZM337.317 32.912L337.482 31.9256L337.472 31.924L337.317 32.912ZM345.819 36.734L345.062 37.3865L345.067 37.3925L345.072 37.3984L345.819 36.734ZM347.315 44.69C347.315 48.8369 346.17 51.5398 344.122 53.0982L345.333 54.6898C348.069 52.6082 349.315 49.1751 349.315 44.69H347.315ZM344.125 53.0961C342.012 54.6925 339.076 55.546 335.211 55.546V57.546C339.355 57.546 342.763 56.6315 345.33 54.6919L344.125 53.0961ZM335.211 55.546C333.017 55.546 331.189 55.3925 329.713 55.0974L329.321 57.0586C330.966 57.3875 332.934 57.546 335.211 57.546V55.546ZM329.682 55.0916C328.138 54.8343 326.961 54.582 326.134 54.3386L325.569 56.2574C326.51 56.534 327.777 56.8017 329.353 57.0644L329.682 55.0916ZM326.851 55.298V49.604H324.851V55.298H326.851ZM325.634 50.5802C326.106 50.6849 326.707 50.8155 327.436 50.9718L327.855 49.0162C327.128 48.8605 326.533 48.7311 326.068 48.6278L325.634 50.5802ZM327.513 50.9852C328.278 51.0871 329.096 51.2149 329.968 51.3688L330.315 49.3992C329.419 49.2411 328.573 49.1089 327.778 49.0028L327.513 50.9852ZM330.025 51.3772C330.911 51.4814 331.823 51.5857 332.761 51.6899L332.982 49.7021C332.048 49.5983 331.14 49.4946 330.258 49.3908L330.025 51.3772ZM332.767 51.6905C333.787 51.7979 334.784 51.852 335.757 51.852V49.852C334.858 49.852 333.931 49.8021 332.976 49.7015L332.767 51.6905ZM335.757 51.852C336.888 51.852 337.902 51.6837 338.75 51.292L337.912 49.476C337.409 49.7083 336.706 49.852 335.757 49.852V51.852ZM338.779 51.2784C339.608 50.8638 340.304 50.3379 340.828 49.6827L339.267 48.4333C338.959 48.8181 338.511 49.1762 337.884 49.4896L338.779 51.2784ZM340.821 49.6912C341.368 49.0236 341.769 48.2854 342.017 47.4801L340.106 46.8919C339.937 47.4386 339.663 47.9484 339.273 48.4248L340.821 49.6912ZM342.023 47.4607C342.253 46.6539 342.373 45.8593 342.373 45.08H340.373C340.373 45.6527 340.285 46.2621 340.1 46.9113L342.023 47.4607ZM342.373 45.08C342.373 43.1245 342.027 41.4807 341.154 40.3385L339.565 41.5535C340.044 42.1793 340.373 43.2915 340.373 45.08H342.373ZM341.176 40.3693C340.316 39.1505 338.676 38.4655 336.641 38.0905L336.278 40.0575C338.195 40.4105 339.155 40.9735 339.542 41.5227L341.176 40.3693ZM336.638 38.0901C332.716 37.3769 330.133 36.183 328.686 34.6446L327.229 36.0154C329.109 38.013 332.195 39.3151 336.28 40.0579L336.638 38.0901ZM328.706 34.667C327.287 33.0646 326.539 30.9505 326.539 28.232H324.539C324.539 31.3375 325.404 33.9554 327.209 35.993L328.706 34.667ZM326.539 28.232C326.539 26.2 326.862 24.5594 327.46 23.2711L325.646 22.4289C324.892 24.0526 324.539 26 324.539 28.232H326.539ZM327.466 23.2591C328.086 21.8758 328.906 20.7846 329.917 19.958L328.65 18.41C327.372 19.4554 326.373 20.8082 325.641 22.4409L327.466 23.2591ZM329.9 19.9715C330.983 19.1238 332.237 18.5057 333.675 18.1222L333.16 16.1898C331.478 16.6383 329.976 17.3722 328.667 18.3965L329.9 19.9715ZM333.696 18.1163C335.208 17.6775 336.855 17.454 338.643 17.454V15.454C336.688 15.454 334.851 15.6985 333.139 16.1957L333.696 18.1163ZM338.643 17.454C340.619 17.454 342.215 17.6321 343.453 17.9656L343.973 16.0344C342.508 15.6399 340.724 15.454 338.643 15.454V17.454ZM343.496 17.9762C344.896 18.2871 345.972 18.5436 346.732 18.7462L347.247 16.8138C346.447 16.6004 345.339 16.3369 343.93 16.0238L343.496 17.9762ZM345.989 17.78V23.474H347.989V17.78H345.989ZM347.214 22.4996C345.868 22.1889 344.574 21.8783 343.332 21.5679L342.847 23.5081C344.101 23.8217 345.407 24.1351 346.765 24.4484L347.214 22.4996ZM343.332 21.5679C341.97 21.2273 340.187 21.07 338.019 21.07V23.07C340.116 23.07 341.713 23.2247 342.847 23.5081L343.332 21.5679ZM338.019 21.07C336.731 21.07 335.586 21.2649 334.632 21.7098L335.478 23.5222C336.085 23.2391 336.916 23.07 338.019 23.07V21.07ZM334.661 21.6969C333.788 22.0711 333.065 22.6193 332.531 23.3538L334.148 24.5302C334.446 24.1207 334.867 23.7849 335.449 23.5351L334.661 21.6969ZM332.559 23.3173C332.045 23.9593 331.695 24.6953 331.507 25.5111L333.456 25.9609C333.579 25.4247 333.802 24.9647 334.12 24.5667L332.559 23.3173ZM331.493 25.5839C331.381 26.3134 331.325 27.0663 331.325 27.842H333.325C333.325 27.1617 333.374 26.5106 333.47 25.8881L331.493 25.5839ZM331.325 27.842C331.325 29.4769 331.808 30.8866 332.861 31.9561C333.895 33.0063 335.373 33.6204 337.163 33.9L337.472 31.924C335.933 31.6836 334.916 31.1927 334.286 30.5529C333.675 29.9324 333.325 29.0671 333.325 27.842H331.325ZM337.153 33.8984C341.12 34.5595 343.675 35.7764 345.062 37.3865L346.577 36.0815C344.74 33.9476 341.627 32.6165 337.482 31.9256L337.153 33.8984ZM345.072 37.3984C346.521 39.029 347.315 41.4117 347.315 44.69H349.315C349.315 41.1043 348.445 38.183 346.567 36.0696L345.072 37.3984ZM358.092 8.42H357.092V9.42H358.092V8.42ZM358.092 1.4V0.399996H357.092V1.4H358.092ZM365.502 1.4H366.502V0.399996H365.502V1.4ZM365.502 8.42V9.42H366.502V8.42H365.502ZM358.482 56H357.482V57H358.482V56ZM358.482 17V16H357.482V17H358.482ZM365.112 17H366.112V16H365.112V17ZM365.112 56V57H366.112V56H365.112ZM359.092 8.42V1.4H357.092V8.42H359.092ZM358.092 2.4H365.502V0.399996H358.092V2.4ZM364.502 1.4V8.42H366.502V1.4H364.502ZM365.502 7.42H358.092V9.42H365.502V7.42ZM359.482 56V17H357.482V56H359.482ZM358.482 18H365.112V16H358.482V18ZM364.112 17V56H366.112V17H364.112ZM365.112 55H358.482V57H365.112V55ZM385.011 22.85V21.85H384.011V22.85H385.011ZM385.167 47.966L384.187 48.1621L384.189 48.1725L384.191 48.1829L385.167 47.966ZM385.713 49.37L384.839 49.8556L384.872 49.9154L384.913 49.97L385.713 49.37ZM386.883 50.462L386.329 51.2941L386.348 51.3072L386.369 51.3195L386.883 50.462ZM391.953 50.696L392.138 51.6789L392.167 51.6734L392.196 51.6661L391.953 50.696ZM394.059 50.15H395.059V48.8407L393.796 49.1852L394.059 50.15ZM394.059 55.61L394.347 56.5678L395.059 56.354V55.61H394.059ZM391.329 56.156L391.171 55.1686L391.148 55.1723L391.125 55.177L391.329 56.156ZM380.487 53.582L379.698 54.1959L379.698 54.1959L380.487 53.582ZM378.849 50.306L377.879 50.5485L377.884 50.5674L377.889 50.586L378.849 50.306ZM378.381 22.85H379.381V21.85H378.381V22.85ZM373.311 22.85H372.311V23.85H373.311V22.85ZM373.311 17V16H372.311V17H373.311ZM378.381 17V18H379.381V17H378.381ZM378.381 7.64V6.64H377.381V7.64H378.381ZM385.011 7.64H386.011V6.64H385.011V7.64ZM385.011 17H384.011V18H385.011V17ZM394.059 17H395.059V16H394.059V17ZM394.059 22.85V23.85H395.059V22.85H394.059ZM384.011 22.85V46.64H386.011V22.85H384.011ZM384.011 46.64C384.011 47.0922 384.075 47.604 384.187 48.1621L386.148 47.7699C386.052 47.288 386.011 46.9158 386.011 46.64H384.011ZM384.191 48.1829C384.318 48.7552 384.538 49.3131 384.839 49.8556L386.587 48.8844C386.369 48.4909 386.224 48.1128 386.144 47.7491L384.191 48.1829ZM384.913 49.97C385.299 50.4838 385.774 50.9243 386.329 51.2941L387.438 49.6299C387.057 49.3757 386.752 49.0882 386.513 48.77L384.913 49.97ZM386.369 51.3195C387.092 51.7532 387.963 51.93 388.911 51.93V49.93C388.196 49.93 387.715 49.7948 387.398 49.6045L386.369 51.3195ZM388.911 51.93C390.146 51.93 391.226 51.8499 392.138 51.6789L391.769 49.7131C391.017 49.8541 390.069 49.93 388.911 49.93V51.93ZM392.196 51.6661C393.032 51.4571 393.741 51.2732 394.322 51.1148L393.796 49.1852C393.233 49.3388 392.539 49.5189 391.711 49.7259L392.196 51.6661ZM393.059 50.15V55.61H395.059V50.15H393.059ZM393.772 54.6522C393.322 54.787 392.472 54.9605 391.171 55.1686L391.487 57.1434C392.787 56.9355 393.756 56.745 394.347 56.5678L393.772 54.6522ZM391.125 55.177C389.951 55.4217 388.694 55.546 387.351 55.546V57.546C388.817 57.546 390.212 57.4103 391.533 57.135L391.125 55.177ZM387.351 55.546C385.901 55.546 384.696 55.3041 383.709 54.8556L382.882 56.6764C384.183 57.2679 385.682 57.546 387.351 57.546V55.546ZM383.709 54.8556C382.703 54.3985 381.899 53.7687 381.277 52.9681L379.698 54.1959C380.531 55.2673 381.599 56.0935 382.882 56.6764L383.709 54.8556ZM381.277 52.9681C380.633 52.1408 380.141 51.1646 379.809 50.026L377.889 50.586C378.285 51.9434 378.885 53.1512 379.698 54.1959L381.277 52.9681ZM379.819 50.0635C379.53 48.9044 379.381 47.6348 379.381 46.25H377.381C377.381 47.7772 377.545 49.2116 377.879 50.5485L379.819 50.0635ZM379.381 46.25V22.85H377.381V46.25H379.381ZM378.381 21.85H373.311V23.85H378.381V21.85ZM374.311 22.85V17H372.311V22.85H374.311ZM373.311 18H378.381V16H373.311V18ZM379.381 17V7.64H377.381V17H379.381ZM378.381 8.64H385.011V6.64H378.381V8.64ZM384.011 7.64V17H386.011V7.64H384.011ZM385.011 18H394.059V16H385.011V18ZM393.059 17V22.85H395.059V17H393.059ZM394.059 21.85H385.011V23.85H394.059V21.85ZM418.496 59.432L419.46 59.6979L419.462 59.6896L418.496 59.432ZM417.17 63.566L416.233 63.2148L416.229 63.2273L417.17 63.566ZM415.376 66.842L414.604 66.2063L414.592 66.2202L414.582 66.2346L415.376 66.842ZM412.724 68.87L412.33 67.9509L412.303 67.9624L412.277 67.9756L412.724 68.87ZM406.328 69.494L406.204 70.4863L406.204 70.4863L406.328 69.494ZM404.378 69.182H403.378V69.9842L404.161 70.1582L404.378 69.182ZM404.378 63.488L404.557 62.5041L403.378 62.2898V63.488H404.378ZM406.25 63.722L406.173 64.7191L406.173 64.7191L406.25 63.722ZM411.554 60.29L410.594 60.0107L410.591 60.0215L410.588 60.0323L411.554 60.29ZM412.802 56L413.762 56.2793L414.134 55H412.802V56ZM411.242 56L410.287 56.2961L410.505 57H411.242V56ZM399.152 17V16H397.795L398.197 17.2961L399.152 17ZM406.328 17L407.291 16.7296L407.086 16H406.328V17ZM415.376 49.214L414.413 49.4844L415.457 53.2021L416.349 49.4449L415.376 49.214ZM423.02 17V16H422.229L422.047 16.7691L423.02 17ZM429.806 17L430.772 17.2576L431.107 16H429.806V17ZM417.532 59.1661C417.123 60.6501 416.689 61.9991 416.234 63.2149L418.106 63.9171C418.586 62.6369 419.037 61.2299 419.46 59.6979L417.532 59.1661ZM416.229 63.2273C415.792 64.441 415.246 65.427 414.604 66.2063L416.148 67.4777C416.962 66.489 417.612 65.291 418.111 63.9047L416.229 63.2273ZM414.582 66.2346C414.017 66.9727 413.275 67.5459 412.33 67.9509L413.118 69.7891C414.357 69.2581 415.383 68.4793 416.17 67.4495L414.582 66.2346ZM412.277 67.9756C411.415 68.4066 410.279 68.65 408.824 68.65V70.65C410.489 70.65 411.953 70.3734 413.171 69.7644L412.277 67.9756ZM408.824 68.65C408.034 68.65 407.243 68.6006 406.452 68.5017L406.204 70.4863C407.077 70.5954 407.95 70.65 408.824 70.65V68.65ZM406.452 68.5017C405.632 68.3992 405.018 68.2998 404.595 68.2058L404.161 70.1582C404.674 70.2722 405.36 70.3808 406.204 70.4863L406.452 68.5017ZM405.378 69.182V63.488H403.378V69.182H405.378ZM404.199 64.4719C404.81 64.5829 405.468 64.6648 406.173 64.7191L406.327 62.7249C405.679 62.6752 405.09 62.6011 404.557 62.5041L404.199 64.4719ZM406.173 64.7191C406.878 64.7733 407.632 64.8 408.434 64.8V62.8C407.676 62.8 406.974 62.7747 406.327 62.7249L406.173 64.7191ZM408.434 64.8C409.471 64.8 410.36 64.3673 411.053 63.5869C411.718 62.8387 412.188 61.7938 412.52 60.5477L410.588 60.0323C410.296 61.1262 409.933 61.8363 409.558 62.2581C409.212 62.6477 408.853 62.8 408.434 62.8V64.8ZM412.514 60.5693L413.762 56.2793L411.842 55.7207L410.594 60.0107L412.514 60.5693ZM412.802 55H411.242V57H412.802V55ZM412.197 55.7039L400.107 16.7039L398.197 17.2961L410.287 56.2961L412.197 55.7039ZM399.152 18H406.328V16H399.152V18ZM405.365 17.2704L414.413 49.4844L416.339 48.9436L407.291 16.7296L405.365 17.2704ZM416.349 49.4449L423.993 17.2309L422.047 16.7691L414.403 48.9831L416.349 49.4449ZM423.02 18H429.806V16H423.02V18ZM428.84 16.7424L417.53 59.1744L419.462 59.6896L430.772 17.2576L428.84 16.7424Z" fill="#226699"/>
</svg>
