<svg width="1200" height="628" viewBox="0 0 1200 628" fill="none" xmlns="http://www.w3.org/2000/svg">
<rect width="1200" height="628" fill="#226699"/>
<path d="M452.583 349V280.548L440.92 323.385H431.873L420.21 280.548V349H411.49V272.7H426.859L436.778 311.722L446.588 272.7H461.63V349H452.583ZM519.387 320.66C519.387 326.401 518.951 331.16 518.079 334.939C517.207 338.645 515.899 341.624 514.155 343.877C512.411 346.057 510.231 347.583 507.615 348.455C505.072 349.327 502.092 349.763 498.677 349.763C495.334 349.763 492.355 349.327 489.739 348.455C487.196 347.583 485.052 346.057 483.308 343.877C481.564 341.624 480.22 338.645 479.275 334.939C478.403 331.16 477.967 326.401 477.967 320.66C477.967 311.359 479.638 304.564 482.981 300.277C486.324 295.917 491.556 293.737 498.677 293.737C505.798 293.737 511.03 295.917 514.373 300.277C517.716 304.564 519.387 311.359 519.387 320.66ZM509.904 322.295C509.904 318.444 509.722 315.174 509.359 312.485C508.996 309.796 508.378 307.653 507.506 306.054C506.707 304.383 505.58 303.184 504.127 302.457C502.674 301.73 500.857 301.367 498.677 301.367C496.497 301.367 494.68 301.73 493.227 302.457C491.774 303.184 490.611 304.383 489.739 306.054C488.94 307.653 488.358 309.796 487.995 312.485C487.632 315.174 487.45 318.444 487.45 322.295C487.45 329.416 488.286 334.503 489.957 337.555C491.628 340.607 494.535 342.133 498.677 342.133C502.819 342.133 505.726 340.607 507.397 337.555C509.068 334.503 509.904 329.416 509.904 322.295ZM535.166 349V294.5H542.796L543.45 300.059C544.686 298.17 546.212 296.644 548.028 295.481C549.845 294.318 552.098 293.737 554.786 293.737C556.094 293.737 557.221 293.81 558.165 293.955C559.11 294.028 559.909 294.137 560.563 294.282V303.983C559.619 303.765 558.529 303.547 557.293 303.329C556.131 303.111 555.041 303.002 554.023 303.002C552.207 303.002 550.681 303.365 549.445 304.092C548.283 304.819 547.302 305.8 546.502 307.035C545.776 308.198 545.231 309.542 544.867 311.068C544.577 312.521 544.431 313.975 544.431 315.428V349H535.166ZM578.03 325.02C578.102 328.581 578.357 331.487 578.793 333.74C579.301 335.92 579.955 337.628 580.755 338.863C581.554 340.098 582.499 340.934 583.589 341.37C584.679 341.733 585.914 341.915 587.295 341.915C590.347 341.915 593.108 341.733 595.579 341.37C598.122 340.934 600.229 340.534 601.901 340.171V348.019C600.157 348.528 597.94 348.927 595.252 349.218C592.636 349.581 590.347 349.763 588.385 349.763C585.26 349.763 582.462 349.436 579.992 348.782C577.594 348.128 575.559 346.82 573.888 344.858C572.216 342.896 570.945 340.098 570.073 336.465C569.201 332.759 568.765 327.854 568.765 321.75C568.765 316.736 569.164 312.449 569.964 308.888C570.836 305.327 572.107 302.421 573.779 300.168C575.45 297.915 577.521 296.28 579.992 295.263C582.462 294.246 585.333 293.737 588.603 293.737C594.852 293.737 599.321 295.808 602.01 299.95C604.771 304.019 606.152 309.651 606.152 316.845V325.02H578.03ZM588.385 301.476C586.641 301.476 585.151 301.73 583.916 302.239C582.68 302.748 581.663 303.62 580.864 304.855C580.064 306.09 579.447 307.762 579.011 309.869C578.575 311.904 578.284 314.483 578.139 317.608H597.105V314.665C597.105 310.523 596.451 307.289 595.143 304.964C593.907 302.639 591.655 301.476 588.385 301.476ZM682.183 347.91C681.602 348.055 680.803 348.237 679.785 348.455C678.768 348.673 677.678 348.855 676.515 349C675.425 349.218 674.299 349.4 673.136 349.545C671.974 349.69 670.956 349.763 670.084 349.763C666.16 349.763 662.818 349.218 660.056 348.128C657.295 346.965 655.006 344.894 653.189 341.915C651.445 338.936 650.137 334.866 649.265 329.707C648.466 324.475 648.066 317.79 648.066 309.651C648.066 301.585 648.539 295.118 649.483 290.249C650.428 285.308 651.845 281.493 653.734 278.804C655.696 276.043 658.131 274.226 661.037 273.354C663.944 272.409 667.396 271.937 671.392 271.937C673.136 271.937 674.989 272.119 676.951 272.482C678.986 272.773 680.73 273.1 682.183 273.463V281.529C680.367 281.093 678.296 280.766 675.97 280.548C673.718 280.257 671.538 280.112 669.43 280.112C667.468 280.112 665.724 280.475 664.198 281.202C662.745 281.856 661.546 283.273 660.601 285.453C659.657 287.56 658.93 290.612 658.421 294.609C657.985 298.533 657.767 303.801 657.767 310.414C657.767 317.245 658.022 322.731 658.53 326.873C659.039 330.942 659.766 334.067 660.71 336.247C661.728 338.427 662.963 339.88 664.416 340.607C665.87 341.261 667.577 341.588 669.539 341.588C671.792 341.588 674.117 341.406 676.515 341.043C678.913 340.68 680.803 340.316 682.183 339.953V347.91ZM724.241 349L723.478 344.531C721.952 346.202 720.172 347.51 718.137 348.455C716.103 349.327 713.705 349.763 710.943 349.763C707.891 349.763 705.348 349.363 703.313 348.564C701.351 347.765 699.753 346.566 698.517 344.967C697.355 343.296 696.519 341.225 696.01 338.754C695.502 336.283 695.247 333.377 695.247 330.034V294.5H704.512V331.124C704.512 332.868 704.585 334.394 704.73 335.702C704.948 337.01 705.348 338.136 705.929 339.081C706.511 340.026 707.31 340.752 708.327 341.261C709.345 341.697 710.689 341.915 712.36 341.915C713.886 341.915 715.267 341.624 716.502 341.043C717.738 340.462 718.791 339.735 719.663 338.863C720.535 337.991 721.226 337.046 721.734 336.029C722.243 334.939 722.534 333.922 722.606 332.977V294.5H731.871V349H724.241ZM749.334 349V294.5H756.964L757.618 300.059C758.854 298.17 760.38 296.644 762.196 295.481C764.013 294.318 766.266 293.737 768.954 293.737C770.262 293.737 771.389 293.81 772.333 293.955C773.278 294.028 774.077 294.137 774.731 294.282V303.983C773.787 303.765 772.697 303.547 771.461 303.329C770.299 303.111 769.209 303.002 768.191 303.002C766.375 303.002 764.849 303.365 763.613 304.092C762.451 304.819 761.47 305.8 760.67 307.035C759.944 308.198 759.399 309.542 759.035 311.068C758.745 312.521 758.599 313.975 758.599 315.428V349H749.334ZM785.619 282.51V272.7H795.974V282.51H785.619ZM786.164 349V294.5H795.429V349H786.164ZM852.667 320.66C852.667 326.401 852.231 331.16 851.359 334.939C850.487 338.645 849.179 341.624 847.435 343.877C845.691 346.057 843.511 347.583 840.895 348.455C838.352 349.327 835.372 349.763 831.957 349.763C828.614 349.763 825.635 349.327 823.019 348.455C820.476 347.583 818.332 346.057 816.588 343.877C814.844 341.624 813.5 338.645 812.555 334.939C811.683 331.16 811.247 326.401 811.247 320.66C811.247 311.359 812.918 304.564 816.261 300.277C819.604 295.917 824.836 293.737 831.957 293.737C839.078 293.737 844.31 295.917 847.653 300.277C850.996 304.564 852.667 311.359 852.667 320.66ZM843.184 322.295C843.184 318.444 843.002 315.174 842.639 312.485C842.276 309.796 841.658 307.653 840.786 306.054C839.987 304.383 838.86 303.184 837.407 302.457C835.954 301.73 834.137 301.367 831.957 301.367C829.777 301.367 827.96 301.73 826.507 302.457C825.054 303.184 823.891 304.383 823.019 306.054C822.22 307.653 821.638 309.796 821.275 312.485C820.912 315.174 820.73 318.444 820.73 322.295C820.73 329.416 821.566 334.503 823.237 337.555C824.908 340.607 827.815 342.133 831.957 342.133C836.099 342.133 839.006 340.607 840.677 337.555C842.348 334.503 843.184 329.416 843.184 322.295ZM898.095 333.195C898.095 339.226 896.423 343.514 893.081 346.057C889.811 348.528 885.378 349.763 879.783 349.763C876.658 349.763 874.006 349.545 871.826 349.109C869.646 348.746 867.938 348.382 866.703 348.019V340.062C867.357 340.207 868.192 340.389 869.21 340.607C870.3 340.752 871.462 340.934 872.698 341.152C873.933 341.297 875.205 341.443 876.513 341.588C877.893 341.733 879.238 341.806 880.546 341.806C881.999 341.806 883.198 341.588 884.143 341.152C885.16 340.643 885.959 340.026 886.541 339.299C887.195 338.5 887.667 337.628 887.958 336.683C888.248 335.666 888.394 334.685 888.394 333.74C888.394 331.124 887.921 329.198 886.977 327.963C886.105 326.728 884.288 325.856 881.527 325.347C875.931 324.33 871.971 322.586 869.646 320.115C867.393 317.572 866.267 314.265 866.267 310.196C866.267 307.217 866.739 304.71 867.684 302.675C868.628 300.568 869.9 298.86 871.499 297.552C873.17 296.244 875.096 295.299 877.276 294.718C879.528 294.064 881.963 293.737 884.579 293.737C887.413 293.737 889.774 293.991 891.664 294.5C893.626 294.936 895.152 295.299 896.242 295.59V303.547C894.352 303.111 892.536 302.675 890.792 302.239C889.048 301.803 886.686 301.585 883.707 301.585C882.035 301.585 880.655 301.839 879.565 302.348C878.547 302.784 877.748 303.402 877.167 304.201C876.585 304.928 876.186 305.763 875.968 306.708C875.822 307.653 875.75 308.634 875.75 309.651C875.75 313.648 878.075 316.009 882.726 316.736C888.394 317.681 892.354 319.461 894.607 322.077C896.932 324.693 898.095 328.399 898.095 333.195ZM911.757 282.51V272.7H922.112V282.51H911.757ZM912.302 349V294.5H921.567V349H912.302ZM949.375 302.675V335.92C949.375 336.429 949.447 337.046 949.593 337.773C949.738 338.427 949.992 339.081 950.356 339.735C950.792 340.316 951.337 340.825 951.991 341.261C952.717 341.697 953.662 341.915 954.825 341.915C956.496 341.915 957.913 341.806 959.076 341.588C960.238 341.297 961.219 341.043 962.019 340.825V348.455C961.292 348.673 960.02 348.927 958.204 349.218C956.46 349.581 954.607 349.763 952.645 349.763C950.465 349.763 948.575 349.4 946.977 348.673C945.378 347.946 944.07 346.929 943.053 345.621C942.035 344.313 941.272 342.787 940.764 341.043C940.328 339.299 940.11 337.41 940.11 335.375V302.675H933.025V294.5H940.11V281.42H949.375V294.5H962.019V302.675H949.375ZM996.167 353.796C995.586 355.903 994.968 357.829 994.314 359.573C993.66 361.39 992.825 362.916 991.807 364.151C990.863 365.386 989.627 366.331 988.101 366.985C986.648 367.712 984.831 368.075 982.651 368.075C981.489 368.075 980.326 368.002 979.163 367.857C978.001 367.712 977.092 367.566 976.438 367.421V359.464C977.238 359.609 978.11 359.718 979.054 359.791C979.999 359.864 981.016 359.9 982.106 359.9C984.141 359.9 985.594 358.265 986.466 354.995L988.21 349H986.03L969.135 294.5H979.163L991.807 339.517L1002.49 294.5H1011.97L996.167 353.796Z" fill="white"/>
<path d="M452.583 349H451.583V350H452.583V349ZM452.583 280.548H453.583L451.618 280.285L452.583 280.548ZM440.92 323.385V324.385H441.684L441.884 323.648L440.92 323.385ZM431.873 323.385L430.908 323.648L431.108 324.385H431.873V323.385ZM420.21 280.548L421.174 280.285L419.21 280.548H420.21ZM420.21 349V350H421.21V349H420.21ZM411.49 349H410.49V350H411.49V349ZM411.49 272.7V271.7H410.49V272.7H411.49ZM426.859 272.7L427.828 272.454L427.636 271.7H426.859V272.7ZM436.778 311.722L435.808 311.968L437.747 311.966L436.778 311.722ZM446.588 272.7V271.7H445.808L445.618 272.456L446.588 272.7ZM461.63 272.7H462.63V271.7H461.63V272.7ZM461.63 349V350H462.63V349H461.63ZM453.583 349V280.548H451.583V349H453.583ZM451.618 280.285L439.955 323.122L441.884 323.648L453.547 280.811L451.618 280.285ZM440.92 322.385H431.873V324.385H440.92V322.385ZM432.837 323.122L421.174 280.285L419.245 280.811L430.908 323.648L432.837 323.122ZM419.21 280.548V349H421.21V280.548H419.21ZM420.21 348H411.49V350H420.21V348ZM412.49 349V272.7H410.49V349H412.49ZM411.49 273.7H426.859V271.7H411.49V273.7ZM425.889 272.946L435.808 311.968L437.747 311.476L427.828 272.454L425.889 272.946ZM437.747 311.966L447.557 272.944L445.618 272.456L435.808 311.478L437.747 311.966ZM446.588 273.7H461.63V271.7H446.588V273.7ZM460.63 272.7V349H462.63V272.7H460.63ZM461.63 348H452.583V350H461.63V348ZM518.079 334.939L519.052 335.168L519.053 335.164L518.079 334.939ZM514.155 343.877L514.936 344.502L514.941 344.495L514.946 344.489L514.155 343.877ZM507.615 348.455L507.299 347.506L507.291 347.509L507.615 348.455ZM489.739 348.455L489.415 349.401L489.423 349.404L489.739 348.455ZM483.308 343.877L482.517 344.489L482.522 344.495L482.527 344.502L483.308 343.877ZM479.275 334.939L478.3 335.164L478.303 335.175L478.306 335.186L479.275 334.939ZM482.981 300.277L483.769 300.892L483.774 300.885L482.981 300.277ZM514.373 300.277L513.579 300.885L513.584 300.892L514.373 300.277ZM507.506 306.054L506.604 306.485L506.615 306.509L506.628 306.533L507.506 306.054ZM504.127 302.457L503.68 303.351L503.68 303.351L504.127 302.457ZM493.227 302.457L493.674 303.351L493.674 303.351L493.227 302.457ZM489.739 306.054L488.852 305.591L488.848 305.599L488.844 305.607L489.739 306.054ZM489.957 337.555L490.834 337.075L490.834 337.075L489.957 337.555ZM507.397 337.555L506.52 337.075L506.52 337.075L507.397 337.555ZM518.387 320.66C518.387 326.357 517.953 331.035 517.104 334.714L519.053 335.164C519.948 331.285 520.387 326.444 520.387 320.66H518.387ZM517.105 334.71C516.256 338.321 514.996 341.157 513.364 343.265L514.946 344.489C516.801 342.092 518.158 338.969 519.052 335.168L517.105 334.71ZM513.374 343.252C511.749 345.284 509.729 346.696 507.299 347.506L507.931 349.404C510.732 348.47 513.073 346.83 514.936 344.502L513.374 343.252ZM507.291 347.509C504.875 348.337 502.01 348.763 498.677 348.763V350.763C502.174 350.763 505.268 350.317 507.939 349.401L507.291 347.509ZM498.677 348.763C495.42 348.763 492.55 348.338 490.055 347.506L489.423 349.404C492.16 350.316 495.249 350.763 498.677 350.763V348.763ZM490.063 347.509C487.707 346.701 485.719 345.29 484.089 343.252L482.527 344.502C484.385 346.824 486.684 348.465 489.415 349.401L490.063 347.509ZM484.099 343.265C482.462 341.151 481.166 338.308 480.244 334.692L478.306 335.186C479.273 338.982 480.666 342.098 482.517 344.489L484.099 343.265ZM480.249 334.714C479.4 331.035 478.967 326.357 478.967 320.66H476.967C476.967 326.444 477.405 331.285 478.3 335.164L480.249 334.714ZM478.967 320.66C478.967 311.438 480.631 304.917 483.769 300.892L482.192 299.662C478.645 304.212 476.967 311.279 476.967 320.66H478.967ZM483.774 300.885C486.874 296.842 491.766 294.737 498.677 294.737V292.737C491.345 292.737 485.773 294.992 482.187 299.669L483.774 300.885ZM498.677 294.737C505.588 294.737 510.48 296.842 513.579 300.885L515.166 299.669C511.581 294.992 506.009 292.737 498.677 292.737V294.737ZM513.584 300.892C516.722 304.917 518.387 311.438 518.387 320.66H520.387C520.387 311.279 518.709 304.212 515.161 299.662L513.584 300.892ZM510.904 322.295C510.904 318.416 510.721 315.098 510.35 312.351L508.368 312.619C508.723 315.249 508.904 318.472 508.904 322.295H510.904ZM510.35 312.351C509.977 309.595 509.335 307.32 508.384 305.575L506.628 306.533C507.42 307.985 508.014 309.998 508.368 312.619L510.35 312.351ZM508.408 305.623C507.527 303.78 506.254 302.402 504.574 301.563L503.68 303.351C504.907 303.965 505.886 304.985 506.604 306.485L508.408 305.623ZM504.574 301.563C502.943 300.747 500.961 300.367 498.677 300.367V302.367C500.752 302.367 502.404 302.714 503.68 303.351L504.574 301.563ZM498.677 300.367C496.392 300.367 494.411 300.747 492.78 301.563L493.674 303.351C494.949 302.714 496.601 302.367 498.677 302.367V300.367ZM492.78 301.563C491.109 302.398 489.805 303.764 488.852 305.591L490.625 306.517C491.416 305.001 492.438 303.969 493.674 303.351L492.78 301.563ZM488.844 305.607C487.977 307.341 487.375 309.604 487.004 312.351L488.986 312.619C489.341 309.989 489.902 307.964 490.633 306.501L488.844 305.607ZM487.004 312.351C486.633 315.098 486.45 318.416 486.45 322.295H488.45C488.45 318.472 488.63 315.249 488.986 312.619L487.004 312.351ZM486.45 322.295C486.45 329.443 487.28 334.748 489.08 338.035L490.834 337.075C489.291 334.258 488.45 329.39 488.45 322.295H486.45ZM489.08 338.035C490.963 341.475 494.253 343.133 498.677 343.133V341.133C494.817 341.133 492.293 339.739 490.834 337.075L489.08 338.035ZM498.677 343.133C503.101 343.133 506.391 341.475 508.274 338.035L506.52 337.075C505.061 339.739 502.537 341.133 498.677 341.133V343.133ZM508.274 338.035C510.074 334.748 510.904 329.443 510.904 322.295H508.904C508.904 329.39 508.062 334.258 506.52 337.075L508.274 338.035ZM535.166 349H534.166V350H535.166V349ZM535.166 294.5V293.5H534.166V294.5H535.166ZM542.796 294.5L543.789 294.383L543.686 293.5H542.796V294.5ZM543.45 300.059L542.457 300.176L542.779 302.913L544.287 300.606L543.45 300.059ZM548.028 295.481L548.567 296.323L548.567 296.323L548.028 295.481ZM558.165 293.955L558.013 294.943L558.051 294.949L558.089 294.952L558.165 293.955ZM560.563 294.282H561.563V293.48L560.78 293.306L560.563 294.282ZM560.563 303.983L560.338 304.957L561.563 305.24V303.983H560.563ZM557.293 303.329L557.109 304.312L557.12 304.314L557.293 303.329ZM549.445 304.092L548.938 303.23L548.927 303.237L548.915 303.244L549.445 304.092ZM546.502 307.035L545.663 306.492L545.658 306.498L545.654 306.505L546.502 307.035ZM544.867 311.068L543.894 310.836L543.89 310.854L543.887 310.872L544.867 311.068ZM544.431 349V350H545.431V349H544.431ZM536.166 349V294.5H534.166V349H536.166ZM535.166 295.5H542.796V293.5H535.166V295.5ZM541.803 294.617L542.457 300.176L544.443 299.942L543.789 294.383L541.803 294.617ZM544.287 300.606C545.449 298.83 546.875 297.406 548.567 296.323L547.489 294.639C545.548 295.881 543.922 297.51 542.613 299.512L544.287 300.606ZM548.567 296.323C550.188 295.286 552.242 294.737 554.786 294.737V292.737C551.954 292.737 549.502 293.35 547.489 294.639L548.567 296.323ZM554.786 294.737C556.061 294.737 557.133 294.808 558.013 294.943L558.317 292.967C557.308 292.811 556.128 292.737 554.786 292.737V294.737ZM558.089 294.952C559.004 295.022 559.753 295.126 560.346 295.258L560.78 293.306C560.065 293.147 559.216 293.033 558.242 292.958L558.089 294.952ZM559.563 294.282V303.983H561.563V294.282H559.563ZM560.788 303.009C559.822 302.786 558.715 302.564 557.467 302.344L557.12 304.314C558.342 304.53 559.415 304.744 560.338 304.957L560.788 303.009ZM557.478 302.346C556.264 302.119 555.111 302.002 554.023 302.002V304.002C554.97 304.002 555.998 304.103 557.109 304.312L557.478 302.346ZM554.023 302.002C552.075 302.002 550.363 302.392 548.938 303.23L549.952 304.954C550.998 304.339 552.338 304.002 554.023 304.002V302.002ZM548.915 303.244C547.619 304.054 546.536 305.143 545.663 306.492L547.342 307.578C548.068 306.457 548.946 305.583 549.975 304.94L548.915 303.244ZM545.654 306.505C544.862 307.772 544.279 309.22 543.894 310.836L545.84 311.3C546.182 309.864 546.689 308.623 547.35 307.565L545.654 306.505ZM543.887 310.872C543.583 312.389 543.431 313.908 543.431 315.428H545.431C545.431 314.042 545.57 312.654 545.848 311.264L543.887 310.872ZM543.431 315.428V349H545.431V315.428H543.431ZM544.431 348H535.166V350H544.431V348ZM578.03 325.02V324.02H577.009L577.03 325.04L578.03 325.02ZM578.793 333.74L577.811 333.93L577.815 333.949L577.819 333.967L578.793 333.74ZM580.755 338.863L581.594 338.32L581.594 338.32L580.755 338.863ZM583.589 341.37L583.217 342.298L583.245 342.309L583.272 342.319L583.589 341.37ZM595.579 341.37L595.724 342.359L595.736 342.358L595.748 342.356L595.579 341.37ZM601.901 340.171H602.901V338.93L601.688 339.194L601.901 340.171ZM601.901 348.019L602.181 348.979L602.901 348.769V348.019H601.901ZM595.252 349.218L595.144 348.224L595.129 348.225L595.114 348.228L595.252 349.218ZM579.992 348.782L579.729 349.747L579.736 349.749L579.992 348.782ZM573.888 344.858L573.126 345.506L573.126 345.506L573.888 344.858ZM570.073 336.465L569.099 336.694L569.1 336.698L570.073 336.465ZM569.964 308.888L568.992 308.65L568.99 308.66L568.988 308.669L569.964 308.888ZM573.779 300.168L574.582 300.764L574.582 300.764L573.779 300.168ZM579.992 295.263L580.372 296.188L580.372 296.188L579.992 295.263ZM602.01 299.95L601.171 300.494L601.176 300.503L601.182 300.511L602.01 299.95ZM606.152 325.02V326.02H607.152V325.02H606.152ZM580.864 304.855L580.024 304.312L580.024 304.312L580.864 304.855ZM579.011 309.869L579.989 310.079L579.99 310.072L579.011 309.869ZM578.139 317.608L577.14 317.562L577.091 318.608H578.139V317.608ZM597.105 317.608V318.608H598.105V317.608H597.105ZM595.143 304.964L594.26 305.433L594.265 305.444L594.271 305.454L595.143 304.964ZM577.03 325.04C577.103 328.631 577.36 331.6 577.811 333.93L579.774 333.55C579.353 331.375 579.102 328.531 579.029 325L577.03 325.04ZM577.819 333.967C578.341 336.207 579.029 338.037 579.915 339.406L581.594 338.32C580.881 337.218 580.261 335.633 579.767 333.513L577.819 333.967ZM579.915 339.406C580.798 340.771 581.891 341.768 583.217 342.298L583.96 340.442C583.106 340.1 582.31 339.426 581.594 338.32L579.915 339.406ZM583.272 342.319C584.483 342.722 585.828 342.915 587.295 342.915V340.915C586.001 340.915 584.875 340.745 583.905 340.421L583.272 342.319ZM587.295 342.915C590.385 342.915 593.196 342.731 595.724 342.359L595.433 340.381C593.02 340.736 590.308 340.915 587.295 340.915V342.915ZM595.748 342.356C598.299 341.918 600.422 341.516 602.113 341.148L601.688 339.194C600.037 339.553 597.945 339.95 595.41 340.384L595.748 342.356ZM600.901 340.171V348.019H602.901V340.171H600.901ZM601.621 347.059C599.953 347.545 597.8 347.937 595.144 348.224L595.359 350.212C598.081 349.918 600.36 349.51 602.181 348.979L601.621 347.059ZM595.114 348.228C592.529 348.587 590.288 348.763 588.385 348.763V350.763C590.405 350.763 592.742 350.576 595.389 350.208L595.114 348.228ZM588.385 348.763C585.328 348.763 582.619 348.443 580.248 347.815L579.736 349.749C582.306 350.429 585.192 350.763 588.385 350.763V348.763ZM580.255 347.817C578.058 347.218 576.195 346.024 574.649 344.21L573.126 345.506C574.923 347.616 577.129 349.038 579.729 349.747L580.255 347.817ZM574.649 344.21C573.115 342.409 571.896 339.776 571.045 336.232L569.1 336.698C569.994 340.421 571.318 343.383 573.126 345.506L574.649 344.21ZM571.046 336.236C570.199 332.636 569.765 327.817 569.765 321.75H567.765C567.765 327.891 568.202 332.882 569.099 336.694L571.046 336.236ZM569.765 321.75C569.765 316.784 570.161 312.575 570.939 309.107L568.988 308.669C568.168 312.323 567.765 316.688 567.765 321.75H569.765ZM570.935 309.126C571.785 305.657 573.01 302.882 574.582 300.764L572.976 299.572C571.205 301.959 569.887 304.998 568.992 308.65L570.935 309.126ZM574.582 300.764C576.15 298.65 578.078 297.132 580.372 296.188L579.611 294.338C576.964 295.428 574.75 297.181 572.976 299.572L574.582 300.764ZM580.372 296.188C582.699 295.23 585.435 294.737 588.603 294.737V292.737C585.23 292.737 582.226 293.261 579.611 294.338L580.372 296.188ZM588.603 294.737C594.615 294.737 598.716 296.713 601.171 300.494L602.848 299.406C599.926 294.903 595.089 292.737 588.603 292.737V294.737ZM601.182 300.511C603.79 304.355 605.152 309.763 605.152 316.845H607.152C607.152 309.539 605.752 303.684 602.837 299.388L601.182 300.511ZM605.152 316.845V325.02H607.152V316.845H605.152ZM606.152 324.02H578.03V326.02H606.152V324.02ZM588.385 300.476C586.548 300.476 584.922 300.743 583.535 301.314L584.296 303.164C585.38 302.717 586.733 302.476 588.385 302.476V300.476ZM583.535 301.314C582.092 301.908 580.922 302.924 580.024 304.312L581.703 305.398C582.404 304.316 583.268 303.587 584.296 303.164L583.535 301.314ZM580.024 304.312C579.134 305.687 578.482 307.489 578.031 309.666L579.99 310.072C580.411 308.034 580.995 306.493 581.703 305.398L580.024 304.312ZM578.033 309.659C577.581 311.767 577.287 314.406 577.14 317.562L579.138 317.654C579.282 314.56 579.568 312.04 579.988 310.079L578.033 309.659ZM578.139 318.608H597.105V316.608H578.139V318.608ZM598.105 317.608V314.665H596.105V317.608H598.105ZM598.105 314.665C598.105 310.438 597.441 307.009 596.014 304.474L594.271 305.454C595.461 307.569 596.105 310.608 596.105 314.665H598.105ZM596.026 304.495C594.572 301.759 591.918 300.476 588.385 300.476V302.476C591.391 302.476 593.242 303.519 594.26 305.433L596.026 304.495ZM682.183 347.91L682.426 348.88L683.183 348.691V347.91H682.183ZM679.785 348.455L679.576 347.477L679.785 348.455ZM676.515 349L676.391 348.008L676.355 348.012L676.319 348.019L676.515 349ZM673.136 349.545L673.26 350.537L673.26 350.537L673.136 349.545ZM660.056 348.128L659.668 349.05L659.679 349.054L659.689 349.058L660.056 348.128ZM653.189 341.915L652.326 342.42L652.331 342.428L652.336 342.436L653.189 341.915ZM649.265 329.707L648.277 329.858L648.278 329.866L648.279 329.874L649.265 329.707ZM649.483 290.249L650.465 290.439L650.466 290.437L649.483 290.249ZM653.734 278.804L652.919 278.225L652.916 278.229L653.734 278.804ZM661.037 273.354L661.325 274.312L661.336 274.309L661.347 274.305L661.037 273.354ZM676.951 272.482L676.769 273.465L676.79 273.469L676.81 273.472L676.951 272.482ZM682.183 273.463H683.183V272.682L682.426 272.493L682.183 273.463ZM682.183 281.529L681.95 282.501L683.183 282.797V281.529H682.183ZM675.97 280.548L675.842 281.54L675.86 281.542L675.877 281.544L675.97 280.548ZM664.198 281.202L664.609 282.114L664.619 282.109L664.628 282.105L664.198 281.202ZM660.601 285.453L661.514 285.862L661.519 285.851L660.601 285.453ZM658.421 294.609L657.429 294.483L657.428 294.491L657.428 294.499L658.421 294.609ZM658.53 326.873L657.538 326.995L657.538 326.997L658.53 326.873ZM660.71 336.247L659.793 336.645L659.798 336.657L659.804 336.67L660.71 336.247ZM664.416 340.607L663.969 341.501L663.987 341.511L664.006 341.519L664.416 340.607ZM676.515 341.043L676.366 340.054L676.366 340.054L676.515 341.043ZM682.183 339.953H683.183V338.656L681.929 338.986L682.183 339.953ZM681.941 346.94C681.376 347.081 680.589 347.26 679.576 347.477L679.995 349.433C681.017 349.214 681.829 349.029 682.426 348.88L681.941 346.94ZM679.576 347.477C678.59 347.688 677.529 347.866 676.391 348.008L676.639 349.992C677.827 349.844 678.946 349.658 679.995 349.433L679.576 347.477ZM676.319 348.019C675.254 348.232 674.152 348.41 673.012 348.553L673.26 350.537C674.446 350.389 675.596 350.204 676.712 349.981L676.319 348.019ZM673.012 348.553C671.878 348.695 670.904 348.763 670.084 348.763V350.763C671.009 350.763 672.07 350.686 673.26 350.537L673.012 348.553ZM670.084 348.763C666.248 348.763 663.037 348.229 660.424 347.198L659.689 349.058C662.598 350.207 666.073 350.763 670.084 350.763V348.763ZM660.445 347.206C657.907 346.138 655.769 344.225 654.043 341.394L652.336 342.436C654.243 345.564 656.683 347.793 659.668 349.05L660.445 347.206ZM654.052 341.41C652.393 338.574 651.113 334.636 650.251 329.54L648.279 329.874C649.162 335.097 650.498 339.297 652.326 342.42L654.052 341.41ZM650.254 329.556C649.465 324.393 649.066 317.763 649.066 309.651H647.066C647.066 317.816 647.467 324.557 648.277 329.858L650.254 329.556ZM649.066 309.651C649.066 301.615 649.538 295.219 650.465 290.439L648.502 290.059C647.54 295.016 647.066 301.555 647.066 309.651H649.066ZM650.466 290.437C651.396 285.568 652.776 281.907 654.553 279.379L652.916 278.229C650.914 281.079 649.46 285.047 648.501 290.061L650.466 290.437ZM654.55 279.383C656.399 276.781 658.656 275.112 661.325 274.312L660.75 272.396C657.605 273.34 654.994 275.304 652.919 278.225L654.55 279.383ZM661.347 274.305C664.128 273.401 667.47 272.937 671.392 272.937V270.937C667.321 270.937 663.76 271.418 660.728 272.403L661.347 274.305ZM671.392 272.937C673.067 272.937 674.859 273.112 676.769 273.465L677.134 271.499C675.12 271.126 673.206 270.937 671.392 270.937V272.937ZM676.81 273.472C678.822 273.759 680.531 274.081 681.941 274.433L682.426 272.493C680.93 272.119 679.15 271.786 677.093 271.492L676.81 273.472ZM681.183 273.463V281.529H683.183V273.463H681.183ZM682.417 280.557C680.544 280.107 678.425 279.774 676.064 279.552L675.877 281.544C678.166 281.758 680.189 282.079 681.95 282.501L682.417 280.557ZM676.098 279.556C673.807 279.26 671.584 279.112 669.43 279.112V281.112C671.492 281.112 673.629 281.254 675.842 281.54L676.098 279.556ZM669.43 279.112C667.344 279.112 665.449 279.499 663.769 280.299L664.628 282.105C666 281.452 667.593 281.112 669.43 281.112V279.112ZM663.788 280.29C662.018 281.087 660.68 282.756 659.684 285.055L661.519 285.851C662.412 283.79 663.472 282.625 664.609 282.114L663.788 280.29ZM659.689 285.044C658.685 287.284 657.943 290.45 657.429 294.483L659.413 294.735C659.917 290.775 660.629 287.837 661.514 285.862L659.689 285.044ZM657.428 294.499C656.986 298.475 656.767 303.785 656.767 310.414H658.767C658.767 303.817 658.985 298.591 659.415 294.719L657.428 294.499ZM656.767 310.414C656.767 317.263 657.022 322.795 657.538 326.995L659.523 326.751C659.021 322.667 658.767 317.226 658.767 310.414H656.767ZM657.538 326.997C658.051 331.103 658.793 334.337 659.793 336.645L661.628 335.849C660.739 333.797 660.027 330.782 659.523 326.749L657.538 326.997ZM659.804 336.67C660.873 338.96 662.237 340.635 663.969 341.501L664.864 339.713C663.689 339.125 662.583 337.894 661.617 335.824L659.804 336.67ZM664.006 341.519C665.615 342.243 667.468 342.588 669.539 342.588V340.588C667.687 340.588 666.125 340.279 664.827 339.695L664.006 341.519ZM669.539 342.588C671.846 342.588 674.221 342.402 676.665 342.032L676.366 340.054C674.013 340.411 671.738 340.588 669.539 340.588V342.588ZM676.665 342.032C679.078 341.666 681.007 341.297 682.438 340.92L681.929 338.986C680.598 339.336 678.749 339.693 676.366 340.054L676.665 342.032ZM681.183 339.953V347.91H683.183V339.953H681.183ZM724.241 349L723.256 349.168L723.398 350H724.241V349ZM723.478 344.531L724.464 344.363L724.12 342.345L722.74 343.857L723.478 344.531ZM718.137 348.455L718.531 349.374L718.545 349.368L718.558 349.362L718.137 348.455ZM703.313 348.564L702.936 349.49L702.948 349.495L703.313 348.564ZM698.517 344.967L697.696 345.538L697.711 345.559L697.726 345.578L698.517 344.967ZM695.247 294.5V293.5H694.247V294.5H695.247ZM704.512 294.5H705.512V293.5H704.512V294.5ZM704.73 335.702L703.736 335.812L703.739 335.84L703.744 335.866L704.73 335.702ZM705.929 339.081L706.781 338.557L706.781 338.557L705.929 339.081ZM708.327 341.261L707.88 342.155L707.906 342.169L707.933 342.18L708.327 341.261ZM716.502 341.043L716.076 340.138L716.076 340.138L716.502 341.043ZM719.663 338.863L720.37 339.57L720.37 339.57L719.663 338.863ZM721.734 336.029L722.629 336.476L722.635 336.464L722.64 336.452L721.734 336.029ZM722.606 332.977L723.603 333.054L723.606 333.015V332.977H722.606ZM722.606 294.5V293.5H721.606V294.5H722.606ZM731.871 294.5H732.871V293.5H731.871V294.5ZM731.871 349V350H732.871V349H731.871ZM725.227 348.832L724.464 344.363L722.493 344.699L723.256 349.168L725.227 348.832ZM722.74 343.857C721.302 345.431 719.63 346.66 717.716 347.548L718.558 349.362C720.714 348.361 722.602 346.974 724.217 345.205L722.74 343.857ZM717.743 347.536C715.86 348.343 713.602 348.763 710.943 348.763V350.763C713.808 350.763 716.345 350.311 718.531 349.374L717.743 347.536ZM710.943 348.763C707.97 348.763 705.561 348.373 703.679 347.633L702.948 349.495C705.135 350.354 707.812 350.763 710.943 350.763V348.763ZM703.691 347.638C701.884 346.902 700.431 345.808 699.309 344.356L697.726 345.578C699.074 347.324 700.819 348.628 702.936 349.49L703.691 347.638ZM699.338 344.396C698.269 342.859 697.477 340.921 696.99 338.552L695.031 338.956C695.56 341.528 696.44 343.732 697.696 345.538L699.338 344.396ZM696.99 338.552C696.498 336.165 696.247 333.329 696.247 330.034H694.247C694.247 333.424 694.505 336.401 695.031 338.956L696.99 338.552ZM696.247 330.034V294.5H694.247V330.034H696.247ZM695.247 295.5H704.512V293.5H695.247V295.5ZM703.512 294.5V331.124H705.512V294.5H703.512ZM703.512 331.124C703.512 332.894 703.586 334.458 703.736 335.812L705.724 335.592C705.584 334.33 705.512 332.842 705.512 331.124H703.512ZM703.744 335.866C703.979 337.277 704.417 338.531 705.078 339.605L706.781 338.557C706.279 337.742 705.917 336.743 705.717 335.538L703.744 335.866ZM705.078 339.605C705.759 340.713 706.7 341.566 707.88 342.155L708.774 340.367C707.919 339.939 707.262 339.339 706.781 338.557L705.078 339.605ZM707.933 342.18C709.122 342.69 710.616 342.915 712.36 342.915V340.915C710.762 340.915 709.567 340.704 708.721 340.342L707.933 342.18ZM712.36 342.915C714.016 342.915 715.545 342.599 716.928 341.948L716.076 340.138C714.989 340.65 713.757 340.915 712.36 340.915V342.915ZM716.928 341.948C718.257 341.323 719.408 340.532 720.37 339.57L718.956 338.156C718.174 338.938 717.218 339.601 716.076 340.138L716.928 341.948ZM720.37 339.57C721.312 338.628 722.068 337.597 722.629 336.476L720.84 335.582C720.383 336.495 719.759 337.354 718.956 338.156L720.37 339.57ZM722.64 336.452C723.187 335.281 723.519 334.146 723.603 333.054L721.609 332.9C721.548 333.698 721.299 334.597 720.828 335.606L722.64 336.452ZM723.606 332.977V294.5H721.606V332.977H723.606ZM722.606 295.5H731.871V293.5H722.606V295.5ZM730.871 294.5V349H732.871V294.5H730.871ZM731.871 348H724.241V350H731.871V348ZM749.334 349H748.334V350H749.334V349ZM749.334 294.5V293.5H748.334V294.5H749.334ZM756.964 294.5L757.957 294.383L757.854 293.5H756.964V294.5ZM757.618 300.059L756.625 300.176L756.947 302.913L758.455 300.606L757.618 300.059ZM762.196 295.481L762.735 296.323L762.735 296.323L762.196 295.481ZM772.333 293.955L772.181 294.943L772.219 294.949L772.257 294.952L772.333 293.955ZM774.731 294.282H775.731V293.48L774.948 293.306L774.731 294.282ZM774.731 303.983L774.506 304.957L775.731 305.24V303.983H774.731ZM771.461 303.329L771.277 304.312L771.287 304.314L771.461 303.329ZM763.613 304.092L763.106 303.23L763.095 303.237L763.083 303.244L763.613 304.092ZM760.67 307.035L759.831 306.492L759.826 306.498L759.822 306.505L760.67 307.035ZM759.035 311.068L758.062 310.836L758.058 310.854L758.055 310.872L759.035 311.068ZM758.599 349V350H759.599V349H758.599ZM750.334 349V294.5H748.334V349H750.334ZM749.334 295.5H756.964V293.5H749.334V295.5ZM755.971 294.617L756.625 300.176L758.611 299.942L757.957 294.383L755.971 294.617ZM758.455 300.606C759.617 298.83 761.043 297.406 762.735 296.323L761.657 294.639C759.716 295.881 758.09 297.51 756.781 299.512L758.455 300.606ZM762.735 296.323C764.356 295.286 766.41 294.737 768.954 294.737V292.737C766.122 292.737 763.67 293.35 761.657 294.639L762.735 296.323ZM768.954 294.737C770.228 294.737 771.301 294.808 772.181 294.943L772.485 292.967C771.476 292.811 770.296 292.737 768.954 292.737V294.737ZM772.257 294.952C773.172 295.022 773.921 295.126 774.514 295.258L774.948 293.306C774.233 293.147 773.384 293.033 772.41 292.958L772.257 294.952ZM773.731 294.282V303.983H775.731V294.282H773.731ZM774.956 303.009C773.99 302.786 772.883 302.564 771.635 302.344L771.287 304.314C772.51 304.53 773.583 304.744 774.506 304.957L774.956 303.009ZM771.646 302.346C770.432 302.119 769.279 302.002 768.191 302.002V304.002C769.138 304.002 770.166 304.103 771.277 304.312L771.646 302.346ZM768.191 302.002C766.243 302.002 764.531 302.392 763.106 303.23L764.12 304.954C765.166 304.339 766.506 304.002 768.191 304.002V302.002ZM763.083 303.244C761.787 304.054 760.704 305.143 759.831 306.492L761.51 307.578C762.235 306.457 763.114 305.583 764.143 304.94L763.083 303.244ZM759.822 306.505C759.03 307.772 758.447 309.22 758.062 310.836L760.008 311.3C760.35 309.864 760.857 308.623 761.518 307.565L759.822 306.505ZM758.055 310.872C757.751 312.389 757.599 313.908 757.599 315.428H759.599C759.599 314.042 759.738 312.654 760.016 311.264L758.055 310.872ZM757.599 315.428V349H759.599V315.428H757.599ZM758.599 348H749.334V350H758.599V348ZM785.619 282.51H784.619V283.51H785.619V282.51ZM785.619 272.7V271.7H784.619V272.7H785.619ZM795.974 272.7H796.974V271.7H795.974V272.7ZM795.974 282.51V283.51H796.974V282.51H795.974ZM786.164 349H785.164V350H786.164V349ZM786.164 294.5V293.5H785.164V294.5H786.164ZM795.429 294.5H796.429V293.5H795.429V294.5ZM795.429 349V350H796.429V349H795.429ZM786.619 282.51V272.7H784.619V282.51H786.619ZM785.619 273.7H795.974V271.7H785.619V273.7ZM794.974 272.7V282.51H796.974V272.7H794.974ZM795.974 281.51H785.619V283.51H795.974V281.51ZM787.164 349V294.5H785.164V349H787.164ZM786.164 295.5H795.429V293.5H786.164V295.5ZM794.429 294.5V349H796.429V294.5H794.429ZM795.429 348H786.164V350H795.429V348ZM851.359 334.939L852.333 335.168L852.334 335.164L851.359 334.939ZM847.435 343.877L848.216 344.502L848.221 344.495L848.226 344.489L847.435 343.877ZM840.895 348.455L840.579 347.506L840.571 347.509L840.895 348.455ZM823.019 348.455L822.695 349.401L822.703 349.404L823.019 348.455ZM816.588 343.877L815.797 344.489L815.802 344.495L815.807 344.502L816.588 343.877ZM812.555 334.939L811.581 335.164L811.583 335.175L811.586 335.186L812.555 334.939ZM816.261 300.277L817.05 300.892L817.055 300.885L816.261 300.277ZM847.653 300.277L846.859 300.885L846.864 300.892L847.653 300.277ZM840.786 306.054L839.884 306.485L839.895 306.509L839.908 306.533L840.786 306.054ZM837.407 302.457L836.96 303.351L836.96 303.351L837.407 302.457ZM826.507 302.457L826.954 303.351L826.954 303.351L826.507 302.457ZM823.019 306.054L822.133 305.591L822.129 305.599L822.125 305.607L823.019 306.054ZM823.237 337.555L824.114 337.075L824.114 337.075L823.237 337.555ZM840.677 337.555L839.8 337.075L839.8 337.075L840.677 337.555ZM851.667 320.66C851.667 326.357 851.234 331.035 850.385 334.714L852.334 335.164C853.229 331.285 853.667 326.444 853.667 320.66H851.667ZM850.386 334.71C849.536 338.321 848.277 341.157 846.644 343.265L848.226 344.489C850.082 342.092 851.438 338.969 852.333 335.168L850.386 334.71ZM846.654 343.252C845.029 345.284 843.01 346.696 840.579 347.506L841.211 349.404C844.013 348.47 846.353 346.83 848.216 344.502L846.654 343.252ZM840.571 347.509C838.156 348.337 835.291 348.763 831.957 348.763V350.763C835.454 350.763 838.548 350.317 841.219 349.401L840.571 347.509ZM831.957 348.763C828.7 348.763 825.83 348.338 823.335 347.506L822.703 349.404C825.44 350.316 828.529 350.763 831.957 350.763V348.763ZM823.343 347.509C820.987 346.701 818.999 345.29 817.369 343.252L815.807 344.502C817.665 346.824 819.965 348.465 822.695 349.401L823.343 347.509ZM817.379 343.265C815.742 341.151 814.446 338.308 813.524 334.692L811.586 335.186C812.554 338.982 813.946 342.098 815.797 344.489L817.379 343.265ZM813.53 334.714C812.681 331.035 812.247 326.357 812.247 320.66H810.247C810.247 326.444 810.686 331.285 811.581 335.164L813.53 334.714ZM812.247 320.66C812.247 311.438 813.912 304.917 817.05 300.892L815.472 299.662C811.925 304.212 810.247 311.279 810.247 320.66H812.247ZM817.055 300.885C820.154 296.842 825.046 294.737 831.957 294.737V292.737C824.625 292.737 819.053 294.992 815.468 299.669L817.055 300.885ZM831.957 294.737C838.868 294.737 843.76 296.842 846.86 300.885L848.447 299.669C844.861 294.992 839.289 292.737 831.957 292.737V294.737ZM846.864 300.892C850.003 304.917 851.667 311.438 851.667 320.66H853.667C853.667 311.279 851.989 304.212 848.442 299.662L846.864 300.892ZM844.184 322.295C844.184 318.416 844.001 315.098 843.63 312.351L841.648 312.619C842.004 315.249 842.184 318.472 842.184 322.295H844.184ZM843.63 312.351C843.258 309.595 842.616 307.32 841.664 305.575L839.908 306.533C840.701 307.985 841.294 309.998 841.648 312.619L843.63 312.351ZM841.688 305.623C840.807 303.78 839.534 302.402 837.854 301.563L836.96 303.351C838.187 303.965 839.166 304.985 839.884 306.485L841.688 305.623ZM837.854 301.563C836.223 300.747 834.242 300.367 831.957 300.367V302.367C834.032 302.367 835.685 302.714 836.96 303.351L837.854 301.563ZM831.957 300.367C829.672 300.367 827.691 300.747 826.06 301.563L826.954 303.351C828.23 302.714 829.882 302.367 831.957 302.367V300.367ZM826.06 301.563C824.389 302.398 823.086 303.764 822.133 305.591L823.906 306.517C824.696 305.001 825.718 303.969 826.954 303.351L826.06 301.563ZM822.125 305.607C821.258 307.341 820.655 309.604 820.284 312.351L822.266 312.619C822.622 309.989 823.182 307.964 823.914 306.501L822.125 305.607ZM820.284 312.351C819.913 315.098 819.73 318.416 819.73 322.295H821.73C821.73 318.472 821.911 315.249 822.266 312.619L820.284 312.351ZM819.73 322.295C819.73 329.443 820.56 334.748 822.36 338.035L824.114 337.075C822.571 334.258 821.73 329.39 821.73 322.295H819.73ZM822.36 338.035C824.243 341.475 827.533 343.133 831.957 343.133V341.133C828.097 341.133 825.573 339.739 824.114 337.075L822.36 338.035ZM831.957 343.133C836.381 343.133 839.671 341.475 841.554 338.035L839.8 337.075C838.341 339.739 835.817 341.133 831.957 341.133V343.133ZM841.554 338.035C843.354 334.748 844.184 329.443 844.184 322.295H842.184C842.184 329.39 841.343 334.258 839.8 337.075L841.554 338.035ZM893.081 346.057L893.683 346.855L893.686 346.853L893.081 346.057ZM871.826 349.109L872.022 348.128L872.006 348.125L871.99 348.123L871.826 349.109ZM866.703 348.019H865.703V348.767L866.42 348.978L866.703 348.019ZM866.703 340.062L866.919 339.086L865.703 338.815V340.062H866.703ZM869.21 340.607L869 341.585L869.038 341.593L869.077 341.598L869.21 340.607ZM872.698 341.152L872.524 342.137L872.552 342.142L872.581 342.145L872.698 341.152ZM876.513 341.588L876.402 342.582L876.408 342.583L876.513 341.588ZM884.143 341.152L884.562 342.06L884.576 342.053L884.59 342.046L884.143 341.152ZM886.541 339.299L885.767 338.666L885.76 338.674L886.541 339.299ZM887.958 336.683L888.913 336.977L888.916 336.967L888.919 336.958L887.958 336.683ZM886.977 327.963L886.16 328.54L886.171 328.555L886.182 328.57L886.977 327.963ZM881.527 325.347L881.708 324.364L881.705 324.363L881.527 325.347ZM869.646 320.115L868.897 320.778L868.907 320.789L868.917 320.8L869.646 320.115ZM867.684 302.675L868.591 303.096L868.596 303.084L867.684 302.675ZM871.499 297.552L870.882 296.764L870.874 296.771L870.865 296.778L871.499 297.552ZM877.276 294.718L877.533 295.684L877.544 295.681L877.554 295.678L877.276 294.718ZM891.664 294.5L891.404 295.466L891.425 295.471L891.447 295.476L891.664 294.5ZM896.242 295.59H897.242V294.822L896.499 294.624L896.242 295.59ZM896.242 303.547L896.017 304.521L897.242 304.804V303.547H896.242ZM890.792 302.239L891.034 301.269L891.034 301.269L890.792 302.239ZM879.565 302.348L879.958 303.267L879.973 303.261L879.987 303.254L879.565 302.348ZM877.167 304.201L877.947 304.826L877.962 304.808L877.975 304.789L877.167 304.201ZM875.968 306.708L874.993 306.483L874.985 306.519L874.979 306.556L875.968 306.708ZM882.726 316.736L882.89 315.75L882.88 315.748L882.726 316.736ZM894.607 322.077L893.849 322.73L893.854 322.735L893.859 322.741L894.607 322.077ZM897.095 333.195C897.095 339.057 895.474 342.979 892.475 345.261L893.686 346.853C897.373 344.048 899.095 339.395 899.095 333.195H897.095ZM892.478 345.259C889.435 347.558 885.239 348.763 879.783 348.763V350.763C885.517 350.763 890.186 349.497 893.683 346.855L892.478 345.259ZM879.783 348.763C876.7 348.763 874.117 348.547 872.022 348.128L871.629 350.09C873.894 350.543 876.616 350.763 879.783 350.763V348.763ZM871.99 348.123C869.826 347.762 868.164 347.406 866.985 347.06L866.42 348.978C867.712 349.358 869.465 349.729 871.661 350.095L871.99 348.123ZM867.703 348.019V340.062H865.703V348.019H867.703ZM866.486 341.038C867.143 341.184 867.981 341.367 869 341.585L869.419 339.629C868.403 339.411 867.57 339.23 866.919 339.086L866.486 341.038ZM869.077 341.598C870.152 341.741 871.3 341.921 872.524 342.137L872.871 340.167C871.624 339.947 870.447 339.763 869.342 339.616L869.077 341.598ZM872.581 342.145C873.818 342.291 875.092 342.436 876.402 342.582L876.623 340.594C875.317 340.449 874.047 340.304 872.814 340.159L872.581 342.145ZM876.408 342.583C877.821 342.731 879.201 342.806 880.546 342.806V340.806C879.275 340.806 877.965 340.735 876.617 340.593L876.408 342.583ZM880.546 342.806C882.09 342.806 883.444 342.576 884.562 342.06L883.724 340.244C882.952 340.6 881.908 340.806 880.546 340.806V342.806ZM884.59 342.046C885.708 341.487 886.632 340.786 887.321 339.924L885.76 338.674C885.287 339.266 884.611 339.8 883.695 340.258L884.59 342.046ZM887.315 339.932C888.047 339.037 888.583 338.051 888.913 336.977L887.002 336.389C886.751 337.204 886.342 337.962 885.767 338.666L887.315 339.932ZM888.919 336.958C889.232 335.862 889.394 334.788 889.394 333.74H887.394C887.394 334.581 887.264 335.47 886.996 336.408L888.919 336.958ZM889.394 333.74C889.394 331.041 888.913 328.849 887.771 327.356L886.182 328.57C886.929 329.548 887.394 331.207 887.394 333.74H889.394ZM887.794 327.386C886.685 325.816 884.529 324.883 881.708 324.364L881.345 326.33C884.047 326.828 885.524 327.639 886.16 328.54L887.794 327.386ZM881.705 324.363C876.192 323.361 872.483 321.671 870.374 319.43L868.917 320.8C871.459 323.501 875.671 325.299 881.348 326.331L881.705 324.363ZM870.394 319.452C868.334 317.126 867.267 314.072 867.267 310.196H865.267C865.267 314.459 866.452 318.017 868.897 320.778L870.394 319.452ZM867.267 310.196C867.267 307.317 867.724 304.963 868.591 303.096L866.777 302.254C865.754 304.456 865.267 307.117 865.267 310.196H867.267ZM868.596 303.084C869.485 301.101 870.667 299.525 872.132 298.326L870.865 296.778C869.133 298.195 867.772 300.034 866.771 302.266L868.596 303.084ZM872.115 298.34C873.673 297.12 875.475 296.233 877.533 295.684L877.018 293.752C874.716 294.366 872.666 295.368 870.882 296.764L872.115 298.34ZM877.554 295.678C879.707 295.053 882.046 294.737 884.579 294.737V292.737C881.879 292.737 879.35 293.075 876.997 293.758L877.554 295.678ZM884.579 294.737C887.36 294.737 889.628 294.987 891.404 295.466L891.924 293.534C889.921 292.995 887.465 292.737 884.579 292.737V294.737ZM891.447 295.476C893.404 295.911 894.914 296.271 895.984 296.556L896.499 294.624C895.389 294.328 893.847 293.961 891.88 293.524L891.447 295.476ZM895.242 295.59V303.547H897.242V295.59H895.242ZM896.466 302.573C894.583 302.138 892.772 301.703 891.034 301.269L890.549 303.209C892.299 303.647 894.122 304.084 896.017 304.521L896.466 302.573ZM891.034 301.269C889.176 300.804 886.722 300.585 883.707 300.585V302.585C886.65 302.585 888.919 302.802 890.549 303.209L891.034 301.269ZM883.707 300.585C881.942 300.585 880.405 300.852 879.142 301.442L879.987 303.254C880.904 302.826 882.128 302.585 883.707 302.585V300.585ZM879.171 301.429C878.008 301.927 877.057 302.651 876.358 303.613L877.975 304.789C878.438 304.152 879.086 303.641 879.958 303.267L879.171 301.429ZM876.386 303.576C875.707 304.425 875.243 305.399 874.993 306.483L876.942 306.933C877.128 306.128 877.464 305.43 877.947 304.826L876.386 303.576ZM874.979 306.556C874.826 307.554 874.75 308.586 874.75 309.651H876.75C876.75 308.681 876.819 307.751 876.956 306.86L874.979 306.556ZM874.75 309.651C874.75 311.854 875.397 313.716 876.781 315.121C878.146 316.507 880.12 317.341 882.571 317.724L882.88 315.748C880.68 315.404 879.167 314.694 878.206 313.718C877.264 312.762 876.75 311.444 876.75 309.651H874.75ZM882.561 317.722C888.14 318.652 891.822 320.375 893.849 322.73L895.364 321.424C892.886 318.547 888.647 316.709 882.89 315.75L882.561 317.722ZM893.859 322.741C895.97 325.116 897.095 328.553 897.095 333.195H899.095C899.095 328.245 897.894 324.27 895.354 321.413L893.859 322.741ZM911.757 282.51H910.757V283.51H911.757V282.51ZM911.757 272.7V271.7H910.757V272.7H911.757ZM922.112 272.7H923.112V271.7H922.112V272.7ZM922.112 282.51V283.51H923.112V282.51H922.112ZM912.302 349H911.302V350H912.302V349ZM912.302 294.5V293.5H911.302V294.5H912.302ZM921.567 294.5H922.567V293.5H921.567V294.5ZM921.567 349V350H922.567V349H921.567ZM912.757 282.51V272.7H910.757V282.51H912.757ZM911.757 273.7H922.112V271.7H911.757V273.7ZM921.112 272.7V282.51H923.112V272.7H921.112ZM922.112 281.51H911.757V283.51H922.112V281.51ZM913.302 349V294.5H911.302V349H913.302ZM912.302 295.5H921.567V293.5H912.302V295.5ZM920.567 294.5V349H922.567V294.5H920.567ZM921.567 348H912.302V350H921.567V348ZM949.375 302.675V301.675H948.375V302.675H949.375ZM949.593 337.773L948.612 337.969L948.614 337.98L948.617 337.99L949.593 337.773ZM950.356 339.735L949.482 340.221L949.515 340.28L949.556 340.335L950.356 339.735ZM951.991 341.261L951.436 342.093L951.456 342.106L951.476 342.118L951.991 341.261ZM959.076 341.588L959.26 342.571L959.289 342.565L959.318 342.558L959.076 341.588ZM962.019 340.825H963.019V339.516L961.756 339.86L962.019 340.825ZM962.019 348.455L962.306 349.413L963.019 349.199V348.455H962.019ZM958.204 349.218L958.046 348.231L958.023 348.234L958 348.239L958.204 349.218ZM946.977 348.673L946.563 349.583L946.977 348.673ZM943.053 345.621L942.263 346.235L942.263 346.235L943.053 345.621ZM940.764 341.043L939.794 341.286L939.798 341.304L939.804 341.323L940.764 341.043ZM940.11 302.675H941.11V301.675H940.11V302.675ZM933.025 302.675H932.025V303.675H933.025V302.675ZM933.025 294.5V293.5H932.025V294.5H933.025ZM940.11 294.5V295.5H941.11V294.5H940.11ZM940.11 281.42V280.42H939.11V281.42H940.11ZM949.375 281.42H950.375V280.42H949.375V281.42ZM949.375 294.5H948.375V295.5H949.375V294.5ZM962.019 294.5H963.019V293.5H962.019V294.5ZM962.019 302.675V303.675H963.019V302.675H962.019ZM948.375 302.675V335.92H950.375V302.675H948.375ZM948.375 335.92C948.375 336.517 948.459 337.204 948.612 337.969L950.573 337.577C950.436 336.888 950.375 336.34 950.375 335.92H948.375ZM948.617 337.99C948.785 338.748 949.077 339.492 949.482 340.221L951.23 339.249C950.908 338.67 950.691 338.106 950.569 337.556L948.617 337.99ZM949.556 340.335C950.065 341.014 950.695 341.599 951.436 342.093L952.546 340.429C951.978 340.051 951.518 339.619 951.156 339.135L949.556 340.335ZM951.476 342.118C952.406 342.676 953.546 342.915 954.825 342.915V340.915C953.779 340.915 953.029 340.718 952.505 340.404L951.476 342.118ZM954.825 342.915C956.535 342.915 958.018 342.804 959.26 342.571L958.892 340.605C957.809 340.808 956.457 340.915 954.825 340.915V342.915ZM959.318 342.558C960.485 342.266 961.473 342.01 962.282 341.79L961.756 339.86C960.965 340.076 959.992 340.328 958.833 340.618L959.318 342.558ZM961.019 340.825V348.455H963.019V340.825H961.019ZM961.731 347.497C961.075 347.694 959.863 347.94 958.046 348.231L958.362 350.205C960.178 349.915 961.509 349.652 962.306 349.413L961.731 347.497ZM958 348.239C956.329 348.587 954.545 348.763 952.645 348.763V350.763C954.669 350.763 956.59 350.576 958.408 350.197L958 348.239ZM952.645 348.763C950.574 348.763 948.832 348.418 947.391 347.763L946.563 349.583C948.319 350.382 950.356 350.763 952.645 350.763V348.763ZM947.391 347.763C945.93 347.099 944.754 346.18 943.842 345.007L942.263 346.235C943.386 347.678 944.826 348.794 946.563 349.583L947.391 347.763ZM943.842 345.007C942.909 343.808 942.201 342.398 941.724 340.763L939.804 341.323C940.344 343.176 941.162 344.818 942.263 346.235L943.842 345.007ZM941.734 340.8C941.32 339.145 941.11 337.338 941.11 335.375H939.11C939.11 337.481 939.335 339.453 939.794 341.286L941.734 340.8ZM941.11 335.375V302.675H939.11V335.375H941.11ZM940.11 301.675H933.025V303.675H940.11V301.675ZM934.025 302.675V294.5H932.025V302.675H934.025ZM933.025 295.5H940.11V293.5H933.025V295.5ZM941.11 294.5V281.42H939.11V294.5H941.11ZM940.11 282.42H949.375V280.42H940.11V282.42ZM948.375 281.42V294.5H950.375V281.42H948.375ZM949.375 295.5H962.019V293.5H949.375V295.5ZM961.019 294.5V302.675H963.019V294.5H961.019ZM962.019 301.675H949.375V303.675H962.019V301.675ZM996.167 353.796L997.131 354.062L997.134 354.054L996.167 353.796ZM994.314 359.573L993.378 359.222L993.373 359.234L994.314 359.573ZM991.807 364.151L991.035 363.515L991.024 363.529L991.013 363.544L991.807 364.151ZM988.101 366.985L987.707 366.066L987.68 366.077L987.654 366.091L988.101 366.985ZM979.163 367.857L979.039 368.849L979.039 368.849L979.163 367.857ZM976.438 367.421H975.438V368.223L976.221 368.397L976.438 367.421ZM976.438 359.464L976.617 358.48L975.438 358.266V359.464H976.438ZM979.054 359.791L978.978 360.788L978.978 360.788L979.054 359.791ZM986.466 354.995L985.506 354.716L985.503 354.726L985.5 354.737L986.466 354.995ZM988.21 349L989.171 349.279L989.543 348H988.21V349ZM986.03 349L985.075 349.296L985.293 350H986.03V349ZM969.135 294.5V293.5H967.778L968.18 294.796L969.135 294.5ZM979.163 294.5L980.126 294.23L979.921 293.5H979.163V294.5ZM991.807 339.517L990.845 339.787L991.889 343.505L992.78 339.748L991.807 339.517ZM1002.49 294.5V293.5H1001.7L1001.52 294.269L1002.49 294.5ZM1011.97 294.5L1012.94 294.758L1013.27 293.5H1011.97V294.5ZM995.203 353.53C994.629 355.613 994.02 357.51 993.378 359.222L995.251 359.924C995.917 358.148 996.543 356.193 997.131 354.062L995.203 353.53ZM993.373 359.234C992.751 360.965 991.966 362.385 991.035 363.515L992.579 364.787C993.683 363.447 994.57 361.815 995.255 359.912L993.373 359.234ZM991.013 363.544C990.18 364.633 989.086 365.475 987.707 366.066L988.495 367.904C990.168 367.187 991.545 366.14 992.602 364.758L991.013 363.544ZM987.654 366.091C986.379 366.728 984.727 367.075 982.651 367.075V369.075C984.936 369.075 986.917 368.695 988.549 367.879L987.654 366.091ZM982.651 367.075C981.53 367.075 980.409 367.005 979.287 366.865L979.039 368.849C980.243 369 981.447 369.075 982.651 369.075V367.075ZM979.287 366.865C978.137 366.721 977.264 366.58 976.655 366.445L976.221 368.397C976.921 368.553 977.865 368.702 979.039 368.849L979.287 366.865ZM977.438 367.421V359.464H975.438V367.421H977.438ZM976.259 360.448C977.098 360.6 978.004 360.713 978.978 360.788L979.131 358.794C978.215 358.723 977.378 358.618 976.617 358.48L976.259 360.448ZM978.978 360.788C979.951 360.863 980.994 360.9 982.106 360.9V358.9C981.038 358.9 980.047 358.864 979.131 358.794L978.978 360.788ZM982.106 360.9C983.433 360.9 984.569 360.351 985.47 359.338C986.341 358.357 986.976 356.964 987.433 355.253L985.5 354.737C985.084 356.296 984.557 357.355 983.975 358.009C983.422 358.631 982.815 358.9 982.106 358.9V360.9ZM987.427 355.274L989.171 349.279L987.25 348.721L985.506 354.716L987.427 355.274ZM988.21 348H986.03V350H988.21V348ZM986.985 348.704L970.09 294.204L968.18 294.796L985.075 349.296L986.985 348.704ZM969.135 295.5H979.163V293.5H969.135V295.5ZM978.201 294.77L990.845 339.787L992.77 339.247L980.126 294.23L978.201 294.77ZM992.78 339.748L1003.46 294.731L1001.52 294.269L990.834 339.286L992.78 339.748ZM1002.49 295.5H1011.97V293.5H1002.49V295.5ZM1011.01 294.242L995.201 353.538L997.134 354.054L1012.94 294.758L1011.01 294.242Z" fill="black"/>
<path d="M338.912 316.166L322.545 314.811L293.782 278.393C291.203 274.266 286.639 270.162 280.934 266.829C280.434 266.543 279.93 266.264 279.418 265.996L297.58 239.45C298.495 238.116 298.977 236.562 298.977 234.951C298.977 232.312 297.681 229.846 295.5 228.361L289.705 224.4C288.38 223.484 286.823 223 285.189 223C282.562 223 280.102 224.295 278.616 226.471L254.812 261.266H229.415C224.824 261.462 220.997 262.252 217.717 263.685C214.348 265.149 211.37 267.422 208.969 270.334L191.604 286.814C188.392 289.779 186.11 293.393 184.823 297.564C183.825 300.78 183.516 303.87 183.269 306.354L183.198 307.055L178.764 339.604C178.292 341.648 178.048 343.586 178.048 345.363C178.03 350.848 180.283 354.265 181.626 355.81C183.319 357.777 185.01 358.645 185.375 358.802C185.976 359.162 186.605 359.435 187.242 359.62L181.394 368.011C181.224 368.254 181.21 368.59 181.257 368.89L175.029 395.716C174.922 396.192 175.112 396.688 175.517 396.964C175.719 397.104 175.956 397.172 176.188 397.172C176.423 397.172 176.658 397.104 176.86 396.967L199.538 381.495C199.859 381.454 200.159 381.275 200.355 380.99L215.86 358.33C216.903 358.761 217.996 359.061 219.131 359.222C219.684 360.187 220.361 361.094 221.152 361.92C222.78 363.643 226.486 366.534 233.062 366.534C236.027 366.534 239.396 365.922 243.087 364.716C245.381 366.454 247.808 367.898 250.492 369.128C256.708 371.975 263.634 373.383 270.192 374.477C275.027 375.282 281.088 375.692 288.202 375.695C299.006 375.692 308.829 374.759 310.999 374.539L338.692 377.371C338.734 377.371 338.77 377.377 338.811 377.377C339.108 377.377 339.388 377.267 339.608 377.068C339.857 376.845 340 376.524 340 376.188V317.351C340 316.73 339.53 316.219 338.912 316.166ZM282.604 229.198C283.21 228.301 284.19 227.832 285.201 227.825C285.819 227.825 286.425 228.004 286.972 228.375L287.156 228.506L292.778 232.348C293.669 232.963 294.145 233.941 294.145 234.951C294.145 235.563 293.973 236.169 293.598 236.722L290.656 241.024L279.656 233.498L282.604 229.198ZM184.924 385.62L184.339 386.024L182.523 384.782L182.684 384.092L185.726 370.983L196.037 378.037L184.924 385.62ZM188.921 358.672C189.01 358.675 189.102 358.711 189.191 358.711C189.242 358.711 189.286 358.696 189.334 358.693L189.114 359.011C189.108 358.996 189.114 358.978 189.108 358.963C189.07 358.85 188.977 358.773 188.921 358.672ZM200.955 342.017L192.793 353.736C191.99 353.986 191.283 354.241 190.718 354.425C190.047 354.645 189.56 354.746 189.191 354.746C188.802 354.738 188.484 354.681 187.896 354.319L187.765 354.238L187.652 354.188L187.465 354.087C187.034 353.843 185.958 353.136 185.013 351.784C184.069 350.426 183.207 348.441 183.201 345.363C183.201 344.002 183.373 342.424 183.813 340.608L183.834 340.507L188.312 307.685V307.655C188.588 304.939 188.835 302.004 189.741 299.095C190.653 296.185 192.175 293.306 195.116 290.581L212.639 273.953L212.716 273.858C214.787 271.326 217.051 269.597 219.773 268.408C222.489 267.223 225.701 266.578 229.608 266.412L252.726 266.418L232.776 295.579L231.017 293.285L217.301 303.795L216.379 305.691C216.106 305.569 215.818 305.438 215.512 305.293C214.002 304.585 212.184 303.697 210.74 302.99C209.302 302.282 208.247 301.754 208.244 301.754L206.473 305.296C206.476 305.296 208.368 306.247 210.549 307.307C210.965 307.512 211.393 307.714 211.818 307.922C211.75 307.935 211.685 307.94 211.616 307.952C211.604 307.955 211.592 307.958 211.584 307.958V307.964C208.413 308.609 205.706 310.567 204.054 313.295L203.994 313.39L202.111 316.53L202.021 316.676C200.928 318.515 200.387 320.569 200.39 322.601C200.387 325.507 201.486 328.395 203.605 330.609L204.193 331.218L200.955 342.017ZM230.835 298.417L222.382 310.77L220.421 309.733L220.418 309.735C220.019 309.465 219.604 309.221 219.176 308.999L220.456 306.372L230.835 298.417ZM217.705 353.522L222.905 345.922L229.9 351.321C226.23 353.499 223.351 354.227 221.175 354.224C219.803 354.218 218.667 353.941 217.705 353.522ZM233.061 361.385C228.651 361.361 226.316 359.827 224.872 358.356C224.7 358.175 224.581 357.997 224.432 357.819C227.047 357.266 229.974 356.024 233.239 353.903L236.303 356.268C237.453 357.754 238.647 359.097 239.877 360.333C237.192 361.081 234.933 361.385 233.061 361.385ZM334.847 371.796L310.998 369.357L310.79 369.381C310.784 369.384 310.131 369.455 308.936 369.565C305.358 369.889 297.062 370.546 288.201 370.543C282.3 370.546 276.149 370.248 271.036 369.396C263.744 368.184 257.745 366.79 252.637 364.445C247.526 362.092 243.265 358.829 239.263 353.632L239.105 353.427L207.745 329.196L206.465 327.867L206.467 327.87C205.07 326.411 204.355 324.516 204.352 322.602C204.352 321.259 204.702 319.919 205.427 318.709L205.341 318.849L207.442 315.352C208.547 313.533 210.327 312.256 212.401 311.839L212.455 311.827L212.434 311.833C212.936 311.72 213.438 311.667 213.943 311.667C214.609 311.667 215.271 311.762 215.928 311.946L215.964 311.958C216.796 312.178 217.586 312.558 218.341 313.093L218.454 313.176L245.09 327.261L256.369 326.649L256.155 322.697V322.694L245.972 323.243L240.716 320.465L275.419 269.737C276.411 270.216 277.392 270.727 278.348 271.286C283.15 274.061 287.405 277.775 289.497 281.24L289.556 281.344L319.889 319.758L334.847 321V371.796Z" fill="white"/>
</svg>
