<svg width="623" height="623" viewBox="0 0 623 623" fill="none" xmlns="http://www.w3.org/2000/svg">
<rect width="623" height="623" fill="#226699"/>
<path d="M512.831 327.101L472.408 323.754L401.368 233.811C394.999 223.617 383.726 213.482 369.636 205.248C368.402 204.543 367.155 203.853 365.893 203.193L410.748 137.628C413.008 134.333 414.198 130.495 414.198 126.517C414.198 120 410.999 113.909 405.611 110.24L391.3 100.456C388.026 98.1964 384.181 97 380.145 97C373.657 97 367.581 100.199 363.911 105.572L305.12 191.509H242.395C231.057 191.993 221.604 193.946 213.503 197.483C205.181 201.101 197.827 206.715 191.897 213.907L149.009 254.608C141.076 261.932 135.439 270.857 132.261 281.159C129.796 289.1 129.033 296.732 128.423 302.867L128.246 304.6L117.296 384.99C116.13 390.038 115.528 394.823 115.528 399.212C115.483 412.759 121.047 421.199 124.364 425.015C128.547 429.874 132.723 432.017 133.625 432.405C135.108 433.293 136.663 433.968 138.234 434.423L123.792 455.148C123.373 455.75 123.336 456.579 123.454 457.321L108.073 523.576C107.808 524.749 108.278 525.975 109.277 526.657C109.776 527.003 110.362 527.172 110.935 527.172C111.515 527.172 112.095 527.003 112.594 526.665L168.603 488.452C169.397 488.35 170.138 487.909 170.622 487.204L208.915 431.239C211.491 432.303 214.192 433.044 216.995 433.44C218.361 435.826 220.033 438.065 221.986 440.104C226.008 444.36 235.159 451.501 251.401 451.501C258.724 451.501 267.046 449.989 276.162 447.01C281.827 451.303 287.822 454.87 294.45 457.908C309.802 464.939 326.909 468.417 343.106 471.117C355.047 473.106 370.017 474.119 387.586 474.127C414.27 474.119 438.532 471.815 443.89 471.272L512.288 478.266C512.39 478.266 512.479 478.28 512.581 478.28C513.316 478.28 514.005 478.009 514.549 477.517C515.166 476.966 515.518 476.174 515.518 475.344V330.03C515.517 328.495 514.357 327.233 512.831 327.101ZM373.76 112.309C375.257 110.093 377.679 108.933 380.174 108.918C381.701 108.918 383.198 109.358 384.548 110.276L385.003 110.599L398.888 120.088C401.09 121.607 402.265 124.022 402.265 126.516C402.265 128.029 401.839 129.525 400.914 130.89L393.649 141.517L366.479 122.928L373.76 112.309ZM132.511 498.638L131.065 499.636L126.581 496.569L126.977 494.866L134.492 462.488L159.958 479.91L132.511 498.638ZM142.381 432.083C142.602 432.089 142.829 432.179 143.049 432.179C143.174 432.179 143.284 432.142 143.402 432.134L142.859 432.92C142.844 432.883 142.859 432.838 142.844 432.802C142.749 432.522 142.521 432.332 142.381 432.083ZM172.104 390.948L151.944 419.893C149.962 420.509 148.216 421.14 146.821 421.595C145.162 422.138 143.959 422.388 143.049 422.388C142.088 422.366 141.303 422.227 139.85 421.331L139.527 421.133L139.248 421.007L138.786 420.758C137.722 420.156 135.065 418.41 132.731 415.071C130.398 411.717 128.27 406.815 128.255 399.212C128.255 395.851 128.681 391.954 129.767 387.469L129.819 387.22L140.878 306.155V306.082C141.561 299.374 142.17 292.123 144.408 284.939C146.661 277.754 150.419 270.642 157.684 263.912L200.96 222.845L201.15 222.609C206.265 216.357 211.858 212.085 218.581 209.15C225.289 206.222 233.222 204.629 242.872 204.219L299.968 204.233L250.695 276.256L246.35 270.591L212.474 296.548L210.199 301.23C209.524 300.929 208.813 300.606 208.057 300.247C204.328 298.5 199.836 296.306 196.27 294.56C192.718 292.812 190.113 291.506 190.105 291.506L185.731 300.254C185.739 300.254 190.413 302.603 195.8 305.222C196.828 305.729 197.885 306.228 198.934 306.741C198.766 306.772 198.605 306.786 198.435 306.815C198.405 306.823 198.376 306.831 198.354 306.831V306.845C190.524 308.437 183.838 313.274 179.758 320.01L179.61 320.245L174.958 328.001L174.738 328.361C172.037 332.904 170.701 337.975 170.709 342.995C170.701 350.172 173.416 357.306 178.649 362.773L180.102 364.278L172.104 390.948ZM245.902 283.266L225.024 313.774L220.18 311.213L220.173 311.22C219.189 310.552 218.162 309.95 217.105 309.4L220.268 302.912L245.902 283.266ZM213.472 419.365L226.315 400.592L243.591 413.926C234.527 419.307 227.417 421.104 222.044 421.097C218.654 421.082 215.85 420.399 213.472 419.365ZM251.4 438.783C240.509 438.724 234.741 434.937 231.174 431.304C230.748 430.857 230.455 430.417 230.088 429.976C236.546 428.611 243.774 425.544 251.84 420.304L259.406 426.145C262.246 429.815 265.196 433.132 268.234 436.185C261.601 438.034 256.023 438.783 251.4 438.783ZM502.791 464.498L443.889 458.474L443.376 458.532C443.361 458.54 441.747 458.716 438.796 458.987C429.96 459.787 409.469 461.409 387.585 461.402C373.011 461.409 357.819 460.675 345.189 458.569C327.18 455.575 312.363 452.133 299.748 446.342C287.125 440.53 276.601 432.472 266.716 419.636L266.327 419.13L188.874 359.282L185.711 356.001L185.718 356.009C182.268 352.405 180.5 347.724 180.493 342.998C180.493 339.681 181.359 336.37 183.15 333.384L182.937 333.729L188.125 325.091C190.856 320.599 195.251 317.444 200.373 316.416L200.506 316.386L200.455 316.401C201.695 316.122 202.935 315.99 204.183 315.99C205.826 315.99 207.463 316.225 209.084 316.68L209.172 316.709C211.227 317.252 213.179 318.191 215.044 319.513L215.322 319.718L281.108 354.504L308.965 352.992L308.437 343.231V343.224L283.287 344.581L270.305 337.72L356.015 212.432C358.465 213.614 360.888 214.875 363.25 216.256C375.109 223.11 385.618 232.284 390.785 240.841L390.932 241.098L465.847 335.974L502.791 339.041V464.498Z" fill="white"/>
</svg>
